<?xml version="1.0" encoding="UTF-8"?>
<svg version="1.1" xmlns="http://www.w3.org/2000/svg" width="821" height="445">
<path d="M0 0 C4.50121291 3.60097033 7.74450195 7.8746486 11.046875 12.5625 C11.55476562 13.20316406 12.06265625 13.84382813 12.5859375 14.50390625 C19.72460654 24.56293989 19.89744253 38.07341184 18.171875 49.8125 C17.63374835 52.85935793 17.02571835 55.62596996 16.046875 58.5625 C16.62050781 58.69785156 17.19414063 58.83320313 17.78515625 58.97265625 C27.4641691 61.42545617 36.7231111 65.02820032 46.046875 68.5625 C45.00525271 73.75209675 41.59977838 76.42099514 37.98046875 80.125 C35.63255871 82.56623954 35.63255871 82.56623954 36.046875 86.5625 C37.34961608 88.38791285 37.34961608 88.38791285 39.171875 90 C39.80480469 90.60328125 40.43773437 91.2065625 41.08984375 91.828125 C42.84089639 93.37995608 44.63444669 94.81950651 46.484375 96.25 C47.33 97.013125 48.175625 97.77625 49.046875 98.5625 C49.046875 99.8825 49.046875 101.2025 49.046875 102.5625 C45.64619635 101.96944567 43.88366128 100.8231901 41.359375 98.5 C39.10927281 96.43245327 36.86898067 94.41860688 34.4921875 92.49609375 C33.66460938 91.81675781 32.83703125 91.13742188 31.984375 90.4375 C30.82228516 89.50550781 30.82228516 89.50550781 29.63671875 88.5546875 C28.046875 86.5625 28.046875 86.5625 28.01953125 84.11328125 C29.31185772 80.90457714 31.02290881 79.22724064 33.546875 76.875 C36.71884177 74.0339243 36.71884177 74.0339243 39.046875 70.5625 C37.86738281 70.42521484 37.86738281 70.42521484 36.6640625 70.28515625 C31.95764853 69.34488996 27.64929148 67.70263202 23.171875 66 C22.29273438 65.67064453 21.41359375 65.34128906 20.5078125 65.00195312 C18.35229447 64.19363386 16.19878059 63.38037706 14.046875 62.5625 C14.046875 63.5525 14.046875 64.5425 14.046875 65.5625 C4.46832009 66.80587011 -3.29611063 63.10981236 -11.953125 59.5625 C-13.438125 59.0675 -13.438125 59.0675 -14.953125 58.5625 C-12.19145058 67.31275156 -8.77414029 75.78933884 -5.390625 84.3125 C-4.79470372 85.81892414 -4.19899895 87.32543394 -3.60351562 88.83203125 C-0.75068845 96.1107343 -0.75068845 96.1107343 2.23022461 103.33691406 C3.046875 105.5625 3.046875 105.5625 3.046875 108.5625 C4.29847738 107.48101833 5.54807881 106.39722078 6.796875 105.3125 C7.53035156 104.67699219 8.26382813 104.04148437 9.01953125 103.38671875 C11.14905343 101.53567321 11.14905343 101.53567321 13.234375 99.125 C15.046875 97.5625 15.046875 97.5625 17.41088867 97.25268555 C20.72476935 97.64217472 21.70981103 98.60609124 24.03515625 100.95703125 C24.74091797 101.66537109 25.44667969 102.37371094 26.17382812 103.10351562 C26.89505859 103.85310547 27.61628906 104.60269531 28.359375 105.375 C29.47022461 106.48198242 29.47022461 106.48198242 30.60351562 107.61132812 C36.046875 113.15502592 36.046875 113.15502592 36.046875 116.5625 C31.14950032 116.14046412 29.15664621 114.07426843 25.859375 110.5625 C22.78699547 107.11747294 22.78699547 107.11747294 19.046875 104.5625 C19.046875 103.9025 19.046875 103.2425 19.046875 102.5625 C14.4854364 104.77410659 11.99190236 107.86856038 8.98828125 111.8203125 C6.45297042 114.09546065 4.38123417 114.25298143 1.046875 114.5625 C0.67175781 113.54671875 0.29664063 112.5309375 -0.08984375 111.484375 C-0.60664715 110.09370403 -1.12358144 108.7030817 -1.640625 107.3125 C-1.88490234 106.64992188 -2.12917969 105.98734375 -2.38085938 105.3046875 C-4.32253239 100.09412193 -6.44000359 94.96875415 -8.59057617 89.84130859 C-11.050663 83.92140783 -13.40923248 77.96176746 -15.765625 72 C-16.01723389 71.37053467 -16.26884277 70.74106934 -16.52807617 70.0925293 C-17.26453322 68.24984697 -17.99371193 66.40426093 -18.72265625 64.55859375 C-19.15167236 63.47763428 -19.58068848 62.3966748 -20.02270508 61.28295898 C-20.953125 58.5625 -20.953125 58.5625 -20.953125 55.5625 C-23.923125 55.0675 -23.923125 55.0675 -26.953125 54.5625 C-26.10288947 56.876511 -25.24870028 59.1888923 -24.390625 61.5 C-24.12757568 62.20987061 -23.86452637 62.91974121 -23.59350586 63.65112305 C-22.12573279 67.57075892 -20.59822714 71.45252207 -18.9609375 75.3046875 C-18.63681885 76.06918213 -18.3127002 76.83367676 -17.97875977 77.62133789 C-17.34432312 79.10587139 -16.70176385 80.58696381 -16.05053711 82.06420898 C-13.84358593 87.23388279 -13.84358593 87.23388279 -14.953125 90.5625 C-26.24972231 95.10569674 -42.39121982 94.49464365 -53.515625 89.8125 C-57.94801784 87.78333518 -62.03015784 85.46490578 -65.953125 82.5625 C-65.953125 81.9025 -65.953125 81.2425 -65.953125 80.5625 C-66.54351563 80.30210937 -67.13390625 80.04171875 -67.7421875 79.7734375 C-76.11764246 75.18617419 -80.89497644 64.7763361 -83.76953125 56.09765625 C-87.13138641 41.96846077 -85.37803866 26.78958447 -78.5234375 14.00390625 C-70.29253772 1.20710933 -58.82770111 -7.26559834 -44.078125 -10.6875 C-27.87298571 -13.45976333 -13.17743919 -9.69859525 0 0 Z " fill="#FC67C3" transform="translate(705.953125,119.4375)"/>
<path d="M0 0 C66.91275168 0 66.91275168 0 78.95703125 10.74609375 C86.97382757 19.13419432 89.3597577 29.43045192 89.20703125 40.74609375 C88.58114769 50.58309386 85.77070519 58.71522274 79 66 C70.60502693 73 70.60502693 73 67 73 C67.30591064 73.45624756 67.61182129 73.91249512 67.92700195 74.38256836 C73.7415513 83.06163038 79.53392177 91.7556992 85.25 100.5 C85.72735596 101.2230835 86.20471191 101.94616699 86.6965332 102.69116211 C90 107.7689507 90 107.7689507 90 110 C72.4241364 112.52261912 72.4241364 112.52261912 67.15283203 108.63916016 C63.9798925 104.93065085 61.99080057 100.60048455 60.01757812 96.16845703 C58.45391209 92.83628771 56.44908923 89.82467168 54.4375 86.75 C52.25885979 83.29573746 50.99932402 80.99729609 50 77 C39.77 77 29.54 77 19 77 C19 87.89 19 98.78 19 110 C12.73 110 6.46 110 0 110 C0 73.7 0 37.4 0 0 Z M19 18 C19 31.86 19 45.72 19 60 C23.7025 60.061875 28.405 60.12375 33.25 60.1875 C35.43544434 60.22846802 35.43544434 60.22846802 37.66503906 60.27026367 C46.64102496 60.3268657 57.07274865 60.38649608 64.5625 54.6875 C70.25382473 48.41244966 70.53238636 42.77050379 70.34765625 34.578125 C69.88174806 29.78293507 69.0991098 27.66999844 66 24 C59.64512822 18.7748832 52.91497349 17.68693953 44.87890625 17.8046875 C43.88691223 17.80770874 43.88691223 17.80770874 42.87487793 17.81079102 C40.43734664 17.82114503 37.99991532 17.84906639 35.5625 17.875 C27.3640625 17.936875 27.3640625 17.936875 19 18 Z " fill="#0D0D0D" transform="translate(371,180)"/>
<path d="M0 0 C6.27 0 12.54 0 19 0 C19.33 18.15 19.66 36.3 20 55 C24.455 50.05 24.455 50.05 29 45 C30.82984167 42.99680491 32.66256166 40.99622931 34.5 39 C36.3341934 37.0007871 38.16702653 35.00033191 40 33 C40.78632812 32.14277344 41.57265625 31.28554687 42.3828125 30.40234375 C47.19326049 25.11420319 51.73648189 19.67770736 56.15234375 14.0546875 C57.06693359 13.03761719 57.06693359 13.03761719 58 12 C58.66 12 59.32 12 60 12 C60.26997803 11.42701172 60.53995605 10.85402344 60.81811523 10.26367188 C62.94601984 6.18808181 65.31181123 2.80103206 69 0 C72.86971953 -0.94751062 76.48333362 -0.76755583 80.4375 -0.5 C81.96407227 -0.44585937 81.96407227 -0.44585937 83.52148438 -0.390625 C86.01828272 -0.29684854 88.50712488 -0.16583025 91 0 C90.26017634 3.39427951 89.44508821 4.8758378 86.875 7.25 C83.67866602 10.30990509 80.75819726 13.50050939 77.8671875 16.84765625 C73.37756116 22.02293683 68.76385157 27.0908887 64.12109375 32.12890625 C63.63350586 32.65838867 63.14591797 33.18787109 62.64355469 33.73339844 C61.25752192 35.23656074 59.86905925 36.73748141 58.48046875 38.23828125 C57.66191406 39.14964844 56.84335937 40.06101563 56 41 C55.21238281 41.85980469 54.42476562 42.71960938 53.61328125 43.60546875 C51.75861579 45.78987127 51.75861579 45.78987127 52.24658203 47.91699219 C53.05768392 50.15948126 54.05073267 51.78805694 55.44140625 53.72265625 C55.93833984 54.42003906 56.43527344 55.11742187 56.94726562 55.8359375 C57.74680664 56.93808594 57.74680664 56.93808594 58.5625 58.0625 C59.10970703 58.82691406 59.65691406 59.59132812 60.22070312 60.37890625 C63.74569114 65.29479059 67.30557284 70.18557454 70.87890625 75.06640625 C74.12663695 79.55820323 77.30086991 84.10160133 80.48144531 88.64111328 C84.32609393 94.1063046 88.32578096 99.42537364 92.453125 104.6796875 C94 107 94 107 94 110 C76.23456458 112.82335771 76.23456458 112.82335771 69.80957031 108.53955078 C65.68156915 104.44664082 62.6710378 99.56491136 59.65185547 94.62695312 C56.87550951 90.21171775 53.6957338 86.10278434 50.5625 81.9375 C49.45784487 80.42708916 48.35492022 78.91541087 47.25390625 77.40234375 C46.17172817 75.93308272 45.08701209 74.46568827 44 73 C43.06196533 71.73373779 43.06196533 71.73373779 42.10498047 70.44189453 C41.48123535 69.6167334 40.85749023 68.79157227 40.21484375 67.94140625 C39.64757568 67.18674072 39.08030762 66.4320752 38.49584961 65.65454102 C38.00221924 65.10854248 37.50858887 64.56254395 37 64 C34.65759501 63.76486094 34.65759501 63.76486094 32.5390625 66.44921875 C31.56211894 67.52358974 30.59100664 68.60328465 29.625 69.6875 C29.14289062 70.21794922 28.66078125 70.74839844 28.1640625 71.29492188 C26.75910535 72.85068285 25.36503845 74.4090065 24 76 C22.94341187 77.1303064 22.94341187 77.1303064 21.86547852 78.28344727 C19.57793665 81.61461835 19.47707839 83.56617886 19.42578125 87.578125 C19.39806641 88.82078125 19.37035156 90.0634375 19.34179688 91.34375 C19.33212891 92.6328125 19.32246094 93.921875 19.3125 95.25 C19.27063416 97.81777145 19.22526174 100.38548899 19.17578125 102.953125 C19.16458252 104.08911133 19.15338379 105.22509766 19.1418457 106.39550781 C19 109 19 109 18 110 C16.66956375 110.0983721 15.33406656 110.13078592 14 110.1328125 C13.195625 110.13410156 12.39125 110.13539063 11.5625 110.13671875 C10.716875 110.13285156 9.87125 110.12898438 9 110.125 C8.154375 110.12886719 7.30875 110.13273437 6.4375 110.13671875 C5.633125 110.13542969 4.82875 110.13414062 4 110.1328125 C3.2575 110.13168457 2.515 110.13055664 1.75 110.12939453 C0 110 0 110 -1 109 C-1.09762523 107.5982167 -1.12631658 106.19155547 -1.12698364 104.78637695 C-1.12980347 103.87771881 -1.13262329 102.96906067 -1.13552856 102.03286743 C-1.13350433 101.02815399 -1.1314801 100.02344055 -1.12939453 98.98828125 C-1.13114685 97.9363559 -1.13289917 96.88443054 -1.13470459 95.80062866 C-1.13912543 92.30456926 -1.13618429 88.80855997 -1.1328125 85.3125 C-1.13348547 82.89493805 -1.13445544 80.47737617 -1.13571167 78.05981445 C-1.13718896 72.98550779 -1.13503309 67.91121869 -1.13037109 62.83691406 C-1.1246738 56.31615297 -1.12795263 49.79543304 -1.13394356 43.27467346 C-1.13754833 38.28031094 -1.13641097 33.28595826 -1.13381577 28.29159546 C-1.13314626 25.88650508 -1.13397572 23.48141382 -1.13629532 21.07632446 C-1.13882048 17.72143165 -1.13498317 14.3666065 -1.12939453 11.01171875 C-1.13141876 10.00700531 -1.13344299 9.00229187 -1.13552856 7.96713257 C-1.13129883 6.60414536 -1.13129883 6.60414536 -1.12698364 5.21362305 C-1.12660662 4.41941452 -1.12622959 3.62520599 -1.12584114 2.80693054 C-1 1 -1 1 0 0 Z " fill="#111111" transform="translate(492,180)"/>
<path d="M0 0 C63.6 0 63.6 0 77.25 9.1875 C85.45651192 17.58052356 87.99854271 26.37189642 88.3125 37.8125 C88.0665911 49.84909353 85.44016828 59.11409881 77 68 C65.32950062 77.61099949 51.05495331 77.41973275 36.75 77.1875 C35.11850204 77.17241456 33.48699047 77.15873304 31.85546875 77.14648438 C27.90302425 77.11638962 23.95251636 77.05762308 20 77 C20 87.89 20 98.78 20 110 C13.4 110 6.8 110 0 110 C0 73.7 0 37.4 0 0 Z M20 18 C20 31.86 20 45.72 20 60 C26.4040625 60.061875 26.4040625 60.061875 32.9375 60.125 C34.92898071 60.15231201 34.92898071 60.15231201 36.96069336 60.18017578 C46.71378681 60.22554241 54.83320185 59.60466539 63 54 C68.41163848 48.14958002 69.40823775 43.8167018 69.24609375 35.9765625 C68.7895484 30.45453779 67.27091337 27.33143306 63.375 23.25 C54.85906532 16.96733229 45.03458113 17.63301751 34.9375 17.8125 C30.008125 17.874375 25.07875 17.93625 20 18 Z " fill="#141414" transform="translate(135,180)"/>
<path d="M0 0 C6.6 0 13.2 0 20 0 C49.22038602 65.97841279 49.22038602 65.97841279 62.5625 97.3125 C63.02205078 98.38636963 63.48160156 99.46023926 63.95507812 100.56665039 C64.36306641 101.53078857 64.77105469 102.49492676 65.19140625 103.48828125 C65.54404541 104.31884033 65.89668457 105.14939941 66.26000977 106.00512695 C67 108 67 108 67 110 C60.4 110 53.8 110 47 110 C45.68 107.03 44.36 104.06 43 101 C41.75680613 98.30894009 40.50929769 95.62093908 39.25 92.9375 C38.93417969 92.26267578 38.61835938 91.58785156 38.29296875 90.89257812 C37.52941839 89.2613569 36.76482496 87.63062399 36 86 C29.59538629 85.97453629 23.19078576 85.9570855 16.78613281 85.94506836 C14.60969556 85.94005576 12.43326164 85.93324397 10.25683594 85.92456055 C7.11913221 85.91235996 3.98147321 85.90674082 0.84375 85.90234375 C-0.12115356 85.89718246 -1.08605713 85.89202118 -2.0802002 85.88670349 C-7.48343812 85.88626006 -12.65405832 86.20525867 -18 87 C-18.2673999 87.6612085 -18.5347998 88.32241699 -18.81030273 89.00366211 C-20.0167498 91.98267649 -21.22707088 94.96010152 -22.4375 97.9375 C-22.85837891 98.97841797 -23.27925781 100.01933594 -23.71289062 101.09179688 C-24.11572266 102.08115234 -24.51855469 103.07050781 -24.93359375 104.08984375 C-25.30540771 105.00628662 -25.67722168 105.92272949 -26.06030273 106.86694336 C-27 109 -27 109 -28 110 C-29.4887186 110.08669432 -30.981445 110.10703494 -32.47265625 110.09765625 C-33.37177734 110.09443359 -34.27089844 110.09121094 -35.19726562 110.08789062 C-36.61555664 110.07532227 -36.61555664 110.07532227 -38.0625 110.0625 C-39.01189453 110.05798828 -39.96128906 110.05347656 -40.93945312 110.04882812 C-43.29303065 110.0370011 -45.64648477 110.02052025 -48 110 C-46.42263725 104.93805839 -44.39800594 100.16322957 -42.25390625 95.32421875 C-41.88719315 94.49079956 -41.52048004 93.65738037 -41.14265442 92.79870605 C-39.95179246 90.09385099 -38.75718912 87.39066657 -37.5625 84.6875 C-36.73429368 82.80845717 -35.90633284 80.92930613 -35.07861328 79.05004883 C-33.44874629 75.35049133 -31.81752383 71.65153671 -30.18505859 67.953125 C-28.4275381 63.97067938 -26.67462151 59.98626466 -24.92578125 56 C-19.4438992 43.50526902 -13.91431464 31.03184888 -8.375 18.5625 C-8.01444519 17.75058197 -7.65389038 16.93866394 -7.28240967 16.10214233 C-6.25913299 13.79831988 -5.23516641 11.4948055 -4.2109375 9.19140625 C-3.7461499 8.14489395 -3.7461499 8.14489395 -3.27197266 7.07723999 C-1.11533903 2.23067806 -1.11533903 2.23067806 0 0 Z M9 23 C4.82491746 31.70249272 1.01764138 40.55279847 -2.75 49.4375 C-3.23380127 50.57493652 -3.71760254 51.71237305 -4.21606445 52.88427734 C-4.67585693 53.97305176 -5.13564941 55.06182617 -5.609375 56.18359375 C-6.02155273 57.15868896 -6.43373047 58.13378418 -6.85839844 59.13842773 C-8.0196784 62.04932647 -9.00894488 65.02683463 -10 68 C2.87 68 15.74 68 29 68 C22.75549508 52.96041772 16.45173425 37.95178792 10 23 C9.67 23 9.34 23 9 23 Z " fill="#101010" transform="translate(282,180)"/>
<path d="M0 0 C0.96156006 0.00757324 1.92312012 0.01514648 2.91381836 0.02294922 C15.93962858 0.32234289 26.69214989 4.67777403 38.25 10.4375 C37.69380331 15.1264493 36.36817327 18.63674267 34.1875 22.8125 C33.63964844 23.87210938 33.09179688 24.93171875 32.52734375 26.0234375 C32.10582031 26.82007813 31.68429688 27.61671875 31.25 28.4375 C27.85355412 27.36116152 24.72179833 26.26050864 21.625 24.5 C11.75979644 19.49237766 -0.58813018 17.19398589 -11.3125 20.625 C-15.03318506 22.58681576 -16.39879645 23.47396958 -17.75 27.4375 C-17.6804818 31.33051905 -17.14533871 33.75751742 -15.1875 37.125 C-8.43434929 43.53183529 1.46977951 45.5889349 10.14257812 48.26171875 C20.72605463 51.6478916 31.01581943 55.77540818 37.25 65.4375 C40.93948503 72.63133462 41.42106265 80.52829951 39.55859375 88.3359375 C36.01871983 99.14810472 30.66022393 103.63643252 20.76171875 108.95703125 C6.1116614 115.13319558 -11.08207669 113.76655616 -25.75 108.4375 C-29.24579708 106.99578507 -32.48835627 105.34567252 -35.75 103.4375 C-36.61109375 102.9734375 -37.4721875 102.509375 -38.359375 102.03125 C-44.43627636 98.48324548 -44.43627636 98.48324548 -45.6875 94.3125 C-44.29548072 88.5588203 -41.59819362 83.59985094 -38.75 78.4375 C-35.61538592 79.88041759 -33.0544082 81.66467015 -30.3125 83.75 C-19.32125936 91.57288896 -7.07706242 94.65556484 6.25 93.4375 C10.16659282 92.41599678 13.2281889 91.16342543 16.25 88.4375 C18.3030723 84.49531604 18.53677184 81.01474512 17.75 76.6875 C14.02009199 71.09263799 9.2464295 68.73825485 2.98046875 66.75390625 C2.30003006 66.53105453 1.61959137 66.30820282 0.91853333 66.07859802 C-1.95750809 65.1371029 -4.84330998 64.2273558 -7.72875977 63.31518555 C-19.97103847 59.41529838 -32.23545196 54.86465634 -38.625 42.9375 C-40.99841555 35.53301196 -41.05954816 26.63772547 -38.0625 19.4375 C-33.10276806 10.15301911 -26.03650705 5.08795093 -16.08984375 1.7890625 C-10.68888045 0.24542879 -5.5945241 -0.06236486 0 0 Z " fill="#0E0E0E" transform="translate(66.75,178.5625)"/>
<path d="M0 0 C1.62270634 -0.04907424 3.24583461 -0.08435519 4.86901855 -0.11364746 C6.22473591 -0.14529118 6.22473591 -0.14529118 7.60784149 -0.17757416 C10 0 10 0 12.09570312 1.81835938 C12.48693359 2.65173828 12.87816406 3.48511719 13.28125 4.34375 C13.97154297 5.72046875 13.97154297 5.72046875 14.67578125 7.125 C15.33126953 8.548125 15.33126953 8.548125 16 10 C16.89991605 11.70128221 17.80612616 13.39925072 18.71875 15.09375 C19.64842575 16.8944973 20.5753973 18.69664266 21.5 20.5 C25.91815886 29.04550221 30.42112776 37.53954893 35 46 C40.2148335 55.63690805 45.33299699 65.31903842 50.35742188 75.05664062 C50.82341797 75.95705078 51.28941406 76.85746094 51.76953125 77.78515625 C52.17792236 78.57801025 52.58631348 79.37086426 53.00708008 80.18774414 C53.86972268 81.96317791 53.86972268 81.96317791 55 83 C64.3532161 65.9005625 64.3532161 65.9005625 73.25 48.5625 C79.71773237 35.43751726 86.62027062 22.54708054 93.77685547 9.78564453 C94.17018066 9.0842334 94.56350586 8.38282227 94.96875 7.66015625 C95.31357422 7.04793213 95.65839844 6.43570801 96.01367188 5.80493164 C97.05714508 3.89542734 98.02685633 1.94628734 99 0 C102.3 0 105.6 0 109 0 C109 36.3 109 72.6 109 110 C107.02 110 105.04 110 103 110 C100.87902122 107.87902122 101.81377783 103.10182198 101.79467773 100.16577148 C101.78477814 99.23903625 101.77487854 98.31230103 101.76467896 97.35748291 C101.73296299 94.27871296 101.7082668 91.19992755 101.68359375 88.12109375 C101.66303293 85.99259529 101.6420367 83.86410099 101.62062073 81.73561096 C101.56530996 76.12142296 101.51594053 70.50719757 101.46777344 64.89294434 C101.41762399 59.1688299 101.36190378 53.44477007 101.30664062 47.72070312 C101.19894898 36.48051534 101.09752862 25.24028024 101 14 C100.60928314 14.75637756 100.21856628 15.51275513 99.81600952 16.29205322 C98.33453373 19.15859177 96.85197876 22.02456906 95.3687439 24.89019775 C94.73286874 26.11922973 94.0973966 27.34847032 93.46237183 28.57794189 C87.89737136 39.35121909 82.13481152 50.00867313 76.29589844 60.63574219 C71.22035667 69.89564167 66.30691993 79.22132764 61.70019531 88.72412109 C60.05790873 92.07107039 58.37280191 95.11613307 56 98 C54.2097168 97.86743164 54.2097168 97.86743164 52 97 C50.31176758 94.47827148 50.31176758 94.47827148 48.64453125 91.12109375 C48.34154114 90.52198181 48.03855103 89.92286987 47.72637939 89.30560303 C46.74279334 87.35547279 45.77799679 85.39663913 44.8125 83.4375 C43.80249656 81.42649547 42.78735095 79.4181508 41.77146912 77.41011047 C41.10236338 76.0875002 40.4346826 74.76416806 39.76844788 73.44010925 C37.3316261 68.60845673 34.77097288 63.871118 32.0625 59.1875 C28.88145105 53.65692028 25.97833802 48.03659411 23.17382812 42.30664062 C19.86554059 35.60456308 16.24296221 29.08206186 12.59228516 22.56152344 C12.14030762 21.75102539 11.68833008 20.94052734 11.22265625 20.10546875 C10.81797119 19.38512451 10.41328613 18.66478027 9.99633789 17.92260742 C9 16 9 16 8 13 C7.67 45.01 7.34 77.02 7 110 C5.02 110 3.04 110 1 110 C0 109 0 109 -0.12304783 107.17465878 C-0.12212604 106.37177709 -0.12120424 105.5688954 -0.12025452 104.74168396 C-0.12162918 103.8231665 -0.12300385 102.90464905 -0.12442017 101.95829773 C-0.12082489 100.94266251 -0.11722961 99.92702728 -0.11352539 98.88061523 C-0.11367142 97.81733002 -0.11381744 96.7540448 -0.1139679 95.65853882 C-0.11326825 92.12520342 -0.10547343 88.59192 -0.09765625 85.05859375 C-0.09579225 82.61621632 -0.09436827 80.17383851 -0.09336853 77.73146057 C-0.08954189 71.28865536 -0.07971037 64.84587252 -0.06866455 58.40307617 C-0.05845356 51.83447574 -0.05387158 45.2658717 -0.04882812 38.69726562 C-0.03808823 25.79816751 -0.02120104 12.89908494 0 0 Z " fill="#232323" transform="translate(35,27)"/>
<path d="M0 0 C7.29154318 -0.10233338 14.58289777 -0.17185299 21.875 -0.21972656 C24.35000529 -0.23970707 26.8249642 -0.2669009 29.29980469 -0.30175781 C60.49288378 -0.72975002 60.49288378 -0.72975002 73.6875 7.625 C74.64011719 8.21539062 75.59273438 8.80578125 76.57421875 9.4140625 C78.38873528 10.60036477 80.19619953 11.79746635 82 13 C82 13.66 82 14.32 82 15 C82.57878906 15.22945312 83.15757812 15.45890625 83.75390625 15.6953125 C92.31921183 20.67063783 97.13954926 33.1067915 99.609375 42.2578125 C101.85972384 58.05526137 100.14278474 73.09479708 90.9609375 86.44140625 C81.36373812 98.96364847 68.22859026 107.160758 52.53442383 109.52124023 C47.34885922 110.15519358 42.19056724 110.14355043 36.97265625 110.1328125 C35.42837196 110.13424759 35.42837196 110.13424759 33.85289001 110.13571167 C31.69220925 110.13638866 29.5315264 110.13456815 27.37084961 110.13037109 C24.04861977 110.12497747 20.72652276 110.13035199 17.40429688 110.13671875 C15.30208303 110.13605864 13.19986928 110.13477886 11.09765625 110.1328125 C10.09984634 110.13483673 9.10203644 110.13686096 8.07398987 110.13894653 C7.15891159 110.13579437 6.24383331 110.13264221 5.30102539 110.12939453 C4.49242569 110.12859894 3.68382599 110.12780334 2.85072327 110.12698364 C1 110 1 110 0 109 C-0.09550698 107.58321089 -0.12188483 106.16168759 -0.12025452 104.74168396 C-0.12162918 103.8231665 -0.12300385 102.90464905 -0.12442017 101.95829773 C-0.12082489 100.94266251 -0.11722961 99.92702728 -0.11352539 98.88061523 C-0.11367142 97.81733002 -0.11381744 96.7540448 -0.1139679 95.65853882 C-0.11326825 92.12520342 -0.10547343 88.59192 -0.09765625 85.05859375 C-0.09579225 82.61621632 -0.09436827 80.17383851 -0.09336853 77.73146057 C-0.08954189 71.28865536 -0.07971037 64.84587252 -0.06866455 58.40307617 C-0.05845356 51.83447574 -0.05387158 45.2658717 -0.04882812 38.69726562 C-0.03808823 25.79816751 -0.02120104 12.89908494 0 0 Z M8 7 C8 38.35 8 69.7 8 102 C48.03920446 104.24035577 48.03920446 104.24035577 80 87.12109375 C88.2567246 78.36445027 92.52689379 67.27450098 93.15625 55.26953125 C92.4928236 41.38733375 87.12114214 29.0619732 76.86328125 19.5546875 C56.74182798 2.76571811 33.99774133 7 8 7 Z " fill="#1B1B1B" transform="translate(293,27)"/>
<path d="M0 0 C2.64 0 5.28 0 8 0 C12.87627479 9.60337251 17.57398902 19.25489719 21.98553467 29.0814209 C23.5771707 32.62642346 25.17933618 36.16666384 26.78125 39.70703125 C27.11837006 40.45254242 27.45549011 41.19805359 27.80282593 41.96615601 C30.39201458 47.68219853 33.01672688 53.38126307 35.65625 59.07421875 C36.24209869 60.33782227 36.24209869 60.33782227 36.83978271 61.62695312 C37.62714272 63.32479336 38.41455712 65.02260838 39.20202637 66.72039795 C45.69460994 80.72212165 52.0886836 94.74024553 58 109 C57 110 57 110 53.4375 110.0625 C52.303125 110.041875 51.16875 110.02125 50 110 C45.33333333 100 40.66666667 90 36 80 C4.32 79.505 4.32 79.505 -28 79 C-28.33 80.65 -28.66 82.3 -29 84 C-29.85575141 86.0806606 -30.76906428 88.13810577 -31.72265625 90.17578125 C-32.26083984 91.33271484 -32.79902344 92.48964844 -33.35351562 93.68164062 C-33.92305936 94.89198249 -34.49272231 96.10226826 -35.0625 97.3125 C-35.63656561 98.54208537 -36.2101385 99.77190091 -36.78320312 101.00195312 C-38.18397233 104.00360143 -39.58972509 107.00280905 -41 110 C-43.64 110 -46.28 110 -49 110 C-46.58653335 101.83490018 -43.01572591 94.2587018 -39.42236328 86.56491089 C-37.506009 82.45993544 -35.60648675 78.34719102 -33.70703125 74.234375 C-33.12098618 72.96623207 -33.12098618 72.96623207 -32.52310181 71.67247009 C-28.43063985 62.798371 -24.45520427 53.87343743 -20.5 44.9375 C-19.82886253 43.4224424 -19.15772002 41.90738703 -18.48657227 40.39233398 C-17.5278356 38.22742982 -16.56931285 36.06243181 -15.61131287 33.89720154 C-13.00555158 28.00820998 -10.38660183 22.1252579 -7.75 16.25 C-7.41548828 15.50097412 -7.08097656 14.75194824 -6.73632812 13.98022461 C-4.61200579 9.25515318 -2.34175169 4.62133298 0 0 Z M4 11 C-1.31282656 21.45748628 -6.40469335 31.99525646 -11.2746582 42.66625977 C-12.3241468 44.96298816 -13.38162333 47.25593159 -14.43945312 49.54882812 C-15.12287843 51.04144579 -15.80583835 52.53427666 -16.48828125 54.02734375 C-16.79768143 54.69628159 -17.1070816 55.36521942 -17.42585754 56.0544281 C-19.67038352 60.99985127 -21.25862834 65.77588502 -23 71 C-4.85 71 13.3 71 32 71 C25.25503105 55.13066225 25.25503105 55.13066225 18.18359375 39.41796875 C17.79679947 38.5820369 17.41000519 37.74610504 17.01148987 36.88484192 C15.82293182 34.31776494 14.6303429 31.75258821 13.4375 29.1875 C12.61105378 27.404424 11.7848811 25.6212212 10.95898438 23.83789062 C8.9757815 19.5571369 6.98897235 15.27807589 5 11 C4.67 11 4.34 11 4 11 Z " fill="#2C2C2C" transform="translate(506,27)"/>
<path d="M0 0 C23.43 0 46.86 0 71 0 C71 2.31 71 4.62 71 7 C49.88 7 28.76 7 7 7 C7 21.19 7 35.38 7 50 C25.81 50 44.62 50 64 50 C64 52.31 64 54.62 64 57 C45.19 57 26.38 57 7 57 C7 71.85 7 86.7 7 102 C11.68058594 101.98839844 16.36117187 101.97679687 21.18359375 101.96484375 C24.14127742 101.9597368 27.09895569 101.95492302 30.05664062 101.95117188 C34.75562666 101.94518415 39.45459328 101.93808575 44.15356445 101.92456055 C47.94014257 101.9137292 51.7266999 101.90772264 55.51329231 101.90512276 C56.96104319 101.90326895 58.40879288 101.89964919 59.85653496 101.89426994 C61.87757135 101.88705633 63.89862848 101.88659192 65.91967773 101.88647461 C67.64842384 101.88314369 67.64842384 101.88314369 69.41209412 101.87974548 C72 102 72 102 73 103 C73.125 106 73.125 106 73 109 C72 110 72 110 69.14634705 110.12025452 C67.86949539 110.11803391 66.59264374 110.11581329 65.27709961 110.11352539 C64.56330171 110.11364593 63.8495038 110.11376646 63.11407566 110.11389065 C60.79346713 110.11314165 58.47293799 110.10551405 56.15234375 110.09765625 C54.7236739 110.09618679 53.29500351 110.0951661 51.86633301 110.09460449 C46.55671382 110.08935208 41.24710614 110.07539099 35.9375 110.0625 C18.1484375 110.0315625 18.1484375 110.0315625 0 110 C0 73.7 0 37.4 0 0 Z " fill="#1C1C1C" transform="translate(187,27)"/>
<path d="M0 0 C3.50797026 0.63313243 6.77074045 1.52690212 10.1328125 2.70703125 C11.10476563 3.04669922 12.07671875 3.38636719 13.078125 3.73632812 C14.08359375 4.09146484 15.0890625 4.44660156 16.125 4.8125 C17.10726562 5.15603516 18.08953125 5.49957031 19.1015625 5.85351562 C24.91490153 7.89200885 30.7048011 9.98396581 36.47412109 12.14404297 C39.12575124 13.04261394 41.76904711 13.70075024 44.5 14.3125 C53.26187007 16.37547999 61.60595031 19.79515885 70 23 C68.95837771 28.18959675 65.55290338 30.85849514 61.93359375 34.5625 C59.58568371 37.00373954 59.58568371 37.00373954 60 41 C61.30274108 42.82541285 61.30274108 42.82541285 63.125 44.4375 C64.07439453 45.34242188 64.07439453 45.34242188 65.04296875 46.265625 C66.79402139 47.81745608 68.58757169 49.25700651 70.4375 50.6875 C71.283125 51.450625 72.12875 52.21375 73 53 C73 54.32 73 55.64 73 57 C69.59932135 56.40694567 67.83678628 55.2606901 65.3125 52.9375 C63.06239781 50.86995327 60.82210567 48.85610688 58.4453125 46.93359375 C57.61773438 46.25425781 56.79015625 45.57492188 55.9375 44.875 C55.16277344 44.25367188 54.38804687 43.63234375 53.58984375 42.9921875 C52 41 52 41 51.97265625 38.55078125 C53.26498272 35.34207714 54.97603381 33.66474064 57.5 31.3125 C60.67196677 28.4714243 60.67196677 28.4714243 63 25 C62.21367188 24.90847656 61.42734375 24.81695312 60.6171875 24.72265625 C55.91077353 23.78238996 51.60241648 22.14013202 47.125 20.4375 C46.24585938 20.10814453 45.36671875 19.77878906 44.4609375 19.43945312 C42.30541947 18.63113386 40.15190559 17.81787706 38 17 C38 17.99 38 18.98 38 20 C28.42144509 21.24337011 20.65701437 17.54731236 12 14 C11.01 13.67 10.02 13.34 9 13 C11.76167442 21.75025156 15.17898471 30.22683884 18.5625 38.75 C19.15842128 40.25642414 19.75412605 41.76293394 20.34960938 43.26953125 C23.20243655 50.5482343 23.20243655 50.5482343 26.18334961 57.77441406 C27 60 27 60 27 63 C28.25160238 61.91851833 29.50120381 60.83472078 30.75 59.75 C31.48347656 59.11449219 32.21695313 58.47898438 32.97265625 57.82421875 C35.10217843 55.97317321 35.10217843 55.97317321 37.1875 53.5625 C39 52 39 52 41.36401367 51.69018555 C44.67789435 52.07967472 45.66293603 53.04359124 47.98828125 55.39453125 C48.69404297 56.10287109 49.39980469 56.81121094 50.12695312 57.54101562 C51.20879883 58.66540039 51.20879883 58.66540039 52.3125 59.8125 C53.42334961 60.91948242 53.42334961 60.91948242 54.55664062 62.04882812 C60 67.59252592 60 67.59252592 60 71 C55.10262532 70.57796412 53.10977121 68.51176843 49.8125 65 C46.74012047 61.55497294 46.74012047 61.55497294 43 59 C43 58.34 43 57.68 43 57 C38.4385614 59.21160659 35.94502736 62.30606038 32.94140625 66.2578125 C30.40609542 68.53296065 28.33435917 68.69048143 25 69 C24.62488281 67.98421875 24.24976563 66.9684375 23.86328125 65.921875 C23.34647785 64.53120403 22.82954356 63.1405817 22.3125 61.75 C22.06822266 61.08742187 21.82394531 60.42484375 21.57226562 59.7421875 C19.6266964 54.52116629 17.50429756 49.385763 15.34936523 44.24804688 C12.95501713 38.48462961 10.66455896 32.68066735 8.375 26.875 C7.89804687 25.67746094 7.42109375 24.47992188 6.9296875 23.24609375 C0 5.67163628 0 5.67163628 0 0 Z " fill="#6F6F6F" transform="translate(682,165)"/>
<path d="M0 0 C0.33 0 0.66 0 1 0 C1 31.35 1 62.7 1 95 C39.99555534 96.41093286 39.99555534 96.41093286 72.22265625 79.8984375 C80.35368137 71.21343045 84.53512079 60.1175709 85.15625 48.26953125 C84.43830681 33.24657009 77.97969351 21.95332215 68 11 C70.49361571 12.20381448 72.68143083 13.45428722 75 15 C75.99 14.67 76.98 14.34 78 14 C78.73323796 11.98491642 78.73323796 11.98491642 79 10 C91.04188771 25.17935225 94.35482308 39.01355481 93 58 C90.76222757 71.17050398 83.34511809 82.65371741 73 91 C59.45460428 100.38802016 46.2009294 103.18272124 29.9375 103.09765625 C28.90560547 103.0962413 27.87371094 103.09482635 26.81054688 103.09336853 C23.54033411 103.08780642 20.2701918 103.07526102 17 103.0625 C14.77213641 103.0574801 12.54427174 103.05291805 10.31640625 103.04882812 C4.87758045 103.03784942 -0.56120474 103.02114938 -6 103 C-6 102.67 -6 102.34 -6 102 C7.86 101.67 21.72 101.34 36 101 C36.66 99.35 37.32 97.7 38 96 C25.46 96 12.92 96 0 96 C0 64.32 0 32.64 0 0 Z " fill="#414141" transform="translate(300,34)"/>
<path d="M0 0 C2.95508443 3.47095046 5.04812294 6.82534234 7 10.9375 C10.1220174 17.37792686 13.49375651 23.66385574 16.9375 29.9375 C21.03533348 37.40635742 25.09867877 44.88951448 29.0859375 52.41796875 C31.69234351 57.29567142 34.35175568 62.14488541 37 67 C41.29 59.08 45.58 51.16 50 43 C51.32 43.33 52.64 43.66 54 44 C54.99 44 55.98 44 57 44 C56.37522305 48.53831031 54.56952751 52.28343178 52.5 56.3125 C52.14905273 57.00093994 51.79810547 57.68937988 51.43652344 58.39868164 C50.30219277 60.60512969 49.15328436 62.8034045 48 65 C47.60619141 65.75571289 47.21238281 66.51142578 46.80664062 67.29003906 C45.63815449 69.5155 44.4484466 71.72805229 43.25 73.9375 C42.70375977 74.97547729 42.70375977 74.97547729 42.14648438 76.03442383 C39.48534775 80.84283501 39.48534775 80.84283501 36.87011719 81.68969727 C35.94440918 81.84329712 35.94440918 81.84329712 35 82 C31.58213876 75.74401836 28.16877618 69.485597 24.75830078 63.22558594 C23.60141926 61.10329787 22.44356812 58.98153801 21.28466797 56.86035156 C9.68102274 35.61876072 9.68102274 35.61876072 4.55395508 25.12646484 C2.47644955 20.88292855 0.22164819 16.80135493 -2.28515625 12.796875 C-3.21221623 10.46656029 -2.88609979 9.31156468 -2 7 C-0.4375 5.25 -0.4375 5.25 1 4 C0.34 4 -0.32 4 -1 4 C-0.67 2.68 -0.34 1.36 0 0 Z " fill="#2A2A2A" transform="translate(53,43)"/>
<path d="M0 0 C2.64 0 5.28 0 8 0 C8.02333029 14.19456042 8.0409134 28.38911787 8.05181217 42.5836935 C8.05704172 49.17404785 8.06414067 55.76438937 8.07543945 62.35473633 C8.08626578 68.70892018 8.09227629 75.06309165 8.09487724 81.41728401 C8.09673195 83.84749611 8.10035343 86.27770749 8.10573006 88.70791435 C8.11293711 92.09882981 8.11399108 95.48969341 8.11352539 98.88061523 C8.11712067 99.89625046 8.12071594 100.91188568 8.12442017 101.95829773 C8.1230455 102.87681519 8.12167084 103.79533264 8.12025452 104.74168396 C8.12117631 105.54456565 8.1220981 106.34744734 8.12304783 107.17465878 C8 109 8 109 7 110 C4 110.125 4 110.125 1 110 C0 109 0 109 -0.12304783 107.17465878 C-0.12212604 106.37177709 -0.12120424 105.5688954 -0.12025452 104.74168396 C-0.12162918 103.8231665 -0.12300385 102.90464905 -0.12442017 101.95829773 C-0.12082489 100.94266251 -0.11722961 99.92702728 -0.11352539 98.88061523 C-0.11367142 97.81733002 -0.11381744 96.7540448 -0.1139679 95.65853882 C-0.11326825 92.12520342 -0.10547343 88.59192 -0.09765625 85.05859375 C-0.09579225 82.61621632 -0.09436827 80.17383851 -0.09336853 77.73146057 C-0.08954189 71.28865536 -0.07971037 64.84587252 -0.06866455 58.40307617 C-0.05845356 51.83447574 -0.05387158 45.2658717 -0.04882812 38.69726562 C-0.03808823 25.79816751 -0.02120104 12.89908494 0 0 Z " fill="#313131" transform="translate(424,27)"/>
<path d="M0 0 C5 1 5 1 6.65332031 3.10131836 C7.12350586 4.00503174 7.59369141 4.90874512 8.078125 5.83984375 C8.59890625 6.82017578 9.1196875 7.80050781 9.65625 8.81054688 C10.1821875 9.84244141 10.708125 10.87433594 11.25 11.9375 C12.06210937 13.47954102 12.06210937 13.47954102 12.890625 15.05273438 C14.62438272 18.35337564 16.33266021 21.66532042 18 25 C18.35304199 24.34926514 18.70608398 23.69853027 19.06982422 23.02807617 C20.67007987 20.08041684 22.27251401 17.13394736 23.875 14.1875 C24.43058594 13.16333984 24.98617187 12.13917969 25.55859375 11.08398438 C26.09355469 10.10107422 26.62851562 9.11816406 27.1796875 8.10546875 C27.91807861 6.74651489 27.91807861 6.74651489 28.67138672 5.36010742 C29.70311696 3.52737382 30.83336384 1.74995424 32 0 C33.65 0 35.3 0 37 0 C37 12.21 37 24.42 37 37 C35.68 37 34.36 37 33 37 C32.67 28.09 32.34 19.18 32 10 C28.04 17.26 24.08 24.52 20 32 C18.68 32 17.36 32 16 32 C12.04 24.74 8.08 17.48 4 10 C3.67 18.91 3.34 27.82 3 37 C2.01 37 1.02 37 0 37 C0 24.79 0 12.58 0 0 Z " fill="#BABABA" transform="translate(30,340)"/>
<path d="M0 0 C3.50797026 0.63313243 6.77074045 1.52690212 10.1328125 2.70703125 C11.10476563 3.04669922 12.07671875 3.38636719 13.078125 3.73632812 C14.08359375 4.09146484 15.0890625 4.44660156 16.125 4.8125 C17.10726562 5.15603516 18.08953125 5.49957031 19.1015625 5.85351562 C24.91490153 7.89200885 30.7048011 9.98396581 36.47412109 12.14404297 C39.12575124 13.04261394 41.76904711 13.70075024 44.5 14.3125 C53.26187007 16.37547999 61.60595031 19.79515885 70 23 C68.95837771 28.18959675 65.55290338 30.85849514 61.93359375 34.5625 C59.58568371 37.00373954 59.58568371 37.00373954 60 41 C61.30274108 42.82541285 61.30274108 42.82541285 63.125 44.4375 C64.07439453 45.34242188 64.07439453 45.34242188 65.04296875 46.265625 C66.79402139 47.81745608 68.58757169 49.25700651 70.4375 50.6875 C71.283125 51.450625 72.12875 52.21375 73 53 C73 54.32 73 55.64 73 57 C69.59932135 56.40694567 67.83678628 55.2606901 65.3125 52.9375 C63.06239781 50.86995327 60.82210567 48.85610688 58.4453125 46.93359375 C57.61773438 46.25425781 56.79015625 45.57492188 55.9375 44.875 C55.16277344 44.25367188 54.38804687 43.63234375 53.58984375 42.9921875 C52 41 52 41 51.97265625 38.55078125 C53.26498272 35.34207714 54.97603381 33.66474064 57.5 31.3125 C60.67196677 28.4714243 60.67196677 28.4714243 63 25 C62.18273437 24.89816406 61.36546875 24.79632813 60.5234375 24.69140625 C56.34104875 23.8706936 52.5856863 22.48095009 48.625 20.9375 C47.88894531 20.65583984 47.15289063 20.37417969 46.39453125 20.08398438 C44.5944264 19.39433382 42.7969379 18.69786068 41 18 C41 17.34 41 16.68 41 16 C39.18822266 15.64615234 39.18822266 15.64615234 37.33984375 15.28515625 C30.90868714 13.85531046 24.76686801 11.62788759 18.5625 9.4375 C17.37978516 9.02564453 16.19707031 8.61378906 14.97851562 8.18945312 C6.32800595 5.16400298 6.32800595 5.16400298 4 4 C4.66 6.64 5.32 9.28 6 12 C5.34 12 4.68 12 4 12 C1.09891706 8.17057052 0.46319911 4.72463088 0 0 Z " fill="#6D6D6D" transform="translate(682,165)"/>
<path d="M0 0 C5.62481238 1.12496248 5.62481238 1.12496248 8.0859375 4.68359375 C8.62476563 5.44736328 9.16359375 6.21113281 9.71875 6.99804688 C10.2653125 7.80306641 10.811875 8.60808594 11.375 9.4375 C12.18324219 10.59282227 12.18324219 10.59282227 13.0078125 11.77148438 C14.6842564 14.17239154 16.34194768 16.58635507 18 19 C20.31 22.3 22.62 25.6 25 29 C25.33 19.43 25.66 9.86 26 0 C26.99 0 27.98 0 29 0 C29 12.21 29 24.42 29 37 C23.3768562 35.87537124 23.3768562 35.87537124 20.9140625 32.28125 C20.37523437 31.51296875 19.83640625 30.7446875 19.28125 29.953125 C18.7346875 29.14359375 18.188125 28.3340625 17.625 27.5 C16.53561432 25.92586376 15.4444644 24.35294702 14.3515625 22.78125 C13.87541504 22.08064453 13.39926758 21.38003906 12.90869141 20.65820312 C10.05611464 16.68546639 7.0026549 12.8605563 4 9 C3.67 18.24 3.34 27.48 3 37 C2.01 37 1.02 37 0 37 C0 24.79 0 12.58 0 0 Z " fill="#888888" transform="translate(379,340)"/>
<path d="M0 0 C1.65 0 3.3 0 5 0 C8.86781451 8.194932 12.67139833 16.41691141 16.375 24.6875 C16.89320312 25.83581299 16.89320312 25.83581299 17.421875 27.00732422 C17.74414062 27.73064941 18.06640625 28.45397461 18.3984375 29.19921875 C18.68380371 29.83690186 18.96916992 30.47458496 19.26318359 31.1315918 C20.02576723 33.06534016 20.54046869 34.97475183 21 37 C19.35 36.67 17.7 36.34 16 36 C15.01 33.03 14.02 30.06 13 27 C6.4 27.33 -0.2 27.66 -7 28 C-8.32 30.97 -9.64 33.94 -11 37 C-12.32 37 -13.64 37 -15 37 C-14.41921976 32.12407095 -12.89345341 28.04681447 -10.83984375 23.6328125 C-10.37584923 22.61343094 -10.37584923 22.61343094 -9.90248108 21.57345581 C-8.92082623 19.420845 -7.92935175 17.27292852 -6.9375 15.125 C-6.2669224 13.65915396 -5.59699368 12.1930109 -4.92773438 10.7265625 C-3.29264328 7.14756162 -1.64873498 3.57273481 0 0 Z M2 5 C0.82887054 7.62309099 -0.33705964 10.24828142 -1.5 12.875 C-1.83386719 13.62136719 -2.16773437 14.36773437 -2.51171875 15.13671875 C-2.82753906 15.85214844 -3.14335938 16.56757813 -3.46875 17.3046875 C-3.90864258 18.2944458 -3.90864258 18.2944458 -4.35742188 19.30419922 C-5.11811255 21.00946207 -5.11811255 21.00946207 -5 23 C0.28 23 5.56 23 11 23 C8.36 17.06 5.72 11.12 3 5 C2.67 5 2.34 5 2 5 Z " fill="#A0A0A0" transform="translate(104,340)"/>
<path d="M0 0 C2.23828125 0.15234375 2.23828125 0.15234375 5 1 C7.16796875 3.50390625 7.16796875 3.50390625 9.1875 6.5625 C10.41486136 8.40471543 11.67603224 10.22594166 13 12 C13.66 12 14.32 12 15 12 C17.09775397 9.24386004 18.99846911 6.37870473 20.9296875 3.50390625 C23 1 23 1 25.2578125 0.15234375 C26.12019531 0.07693359 26.12019531 0.07693359 27 0 C26.35724549 5.71222155 23.11266658 9.01862871 19.6171875 13.37890625 C17.76079577 15.77065463 17.76079577 15.77065463 18.25610352 17.95458984 C19.02879148 20.07916475 19.92406223 21.54973984 21.28515625 23.34765625 C21.73310547 23.95287109 22.18105469 24.55808594 22.64257812 25.18164062 C23.5924893 26.43991361 24.54301457 27.69772322 25.49414062 28.95507812 C29 33.69532377 29 33.69532377 29 37 C25.25566603 36.78052749 24.14288813 36.15424649 21.54296875 33.34765625 C20.7436203 32.26292059 19.95874445 31.16739429 19.1875 30.0625 C18.78080078 29.51142578 18.37410156 28.96035156 17.95507812 28.39257812 C15 24.30513393 15 24.30513393 15 22 C10.74974187 25.86387103 7.81362535 30.13548877 4.74609375 34.98828125 C4.16988281 35.65214844 3.59367188 36.31601562 3 37 C1.68 37 0.36 37 -1 37 C-0.40946032 33.99499084 0.44915235 32.10870313 2.35546875 29.72265625 C2.81244141 29.12646484 3.26941406 28.53027344 3.74023438 27.91601562 C4.7076484 26.67704678 5.68431301 25.44524747 6.66992188 24.22070312 C8.25043462 22.21648752 8.25043462 22.21648752 10 19 C9.11189626 13.78926744 4.84060385 9.62925411 1.6796875 5.5234375 C0 3 0 3 0 0 Z " fill="#929292" transform="translate(566,340)"/>
<path d="M0 0 C18 0 18 0 26 4 C28.42804472 8.17623692 28.26369173 12.26607691 27.6171875 16.94140625 C26.65639247 20.14608333 24.8424518 21.40545387 22 23 C21.34 23 20.68 23 20 23 C20.433125 23.60328125 20.86625 24.2065625 21.3125 24.828125 C21.869375 25.62734375 22.42625 26.4265625 23 27.25 C23.556875 28.03890625 24.11375 28.8278125 24.6875 29.640625 C26 32 26 32 26 36 C24.15234375 35.78125 24.15234375 35.78125 22 35 C20.75390625 32.96875 20.75390625 32.96875 19.5625 30.5 C17.49656754 27.11401719 16.63638531 26.15852745 12.72265625 25.18359375 C9.45699951 24.96021006 6.27008478 24.87870605 3 25 C3 28.63 3 32.26 3 36 C2.01 36 1.02 36 0 36 C0 24.12 0 12.24 0 0 Z M3 3 C3 9.27 3 15.54 3 22 C13.64149378 22.6628959 13.64149378 22.6628959 22.9375 18.3125 C24.48471252 14.94503746 24.51410188 12.66297593 24 9 C21.45862841 5.84045695 19.85377341 4.28459114 16 3 C11.66328697 2.86498403 7.33988266 2.95703086 3 3 Z " fill="#323232" transform="translate(147,340)"/>
<path d="M0 0 C3.17625 -0.0825 6.3525 -0.165 9.625 -0.25 C10.6145166 -0.28641602 11.6040332 -0.32283203 12.62353516 -0.36035156 C18.42835172 -0.43310245 21.56166724 0.18758596 26 4 C28.36573729 7.01093837 28.36546655 10.20188013 28.24609375 13.97265625 C27.85242487 17.21573794 26.862112 19.33097279 25 22 C20.37358088 24.91905016 16.4690919 25.38945696 11.125 25.1875 C10.43664062 25.17396484 9.74828125 25.16042969 9.0390625 25.14648438 C7.35902999 25.1114837 5.6794065 25.05768954 4 25 C4 28.96 4 32.92 4 37 C2.68 37 1.36 37 0 37 C0 24.79 0 12.58 0 0 Z M4 3 C3.97316013 5.97922593 3.95323963 8.95821295 3.9375 11.9375 C3.92912109 12.78763672 3.92074219 13.63777344 3.91210938 14.51367188 C3.90888672 15.32255859 3.90566406 16.13144531 3.90234375 16.96484375 C3.89710693 17.7137085 3.89187012 18.46257324 3.88647461 19.23413086 C3.80658248 21.02667739 3.80658248 21.02667739 5 22 C7.08496606 21.98822053 9.16970153 21.88993039 11.25 21.75 C12.38953125 21.68296875 13.5290625 21.6159375 14.703125 21.546875 C18.17311171 20.97128479 20.18580629 20.07469755 23 18 C24.60368502 14.79262995 24.62520727 11.46955684 24 8 C20.72278927 4.54564274 17.87174338 3.06264201 13.08203125 2.90234375 C12.00308594 2.91394531 10.92414062 2.92554688 9.8125 2.9375 C8.72582031 2.94652344 7.63914062 2.95554687 6.51953125 2.96484375 C5.68808594 2.97644531 4.85664062 2.98804688 4 3 Z " fill="#A0A0A0" transform="translate(619,340)"/>
<path d="M0 0 C1.91015625 0.82421875 1.91015625 0.82421875 4.66015625 2.32421875 C4.66015625 3.64421875 4.66015625 4.96421875 4.66015625 6.32421875 C3.34015625 6.32421875 2.02015625 6.32421875 0.66015625 6.32421875 C0.33015625 5.66421875 0.00015625 5.00421875 -0.33984375 4.32421875 C-5.29321736 2.67309421 -10.30377995 2.46454737 -15.15234375 4.51171875 C-18.57775598 7.34991745 -21.90579102 10.67594767 -22.6484375 15.20703125 C-22.99051739 21.1571482 -21.60855955 24.21447777 -17.84765625 28.79296875 C-15.73075164 30.94277862 -14.66279318 31.30423771 -11.625 31.4921875 C-10.02978516 31.50185547 -10.02978516 31.50185547 -8.40234375 31.51171875 C-7.34144531 31.52589844 -6.28054688 31.54007812 -5.1875 31.5546875 C-2.13706706 31.53986942 -2.13706706 31.53986942 0.66015625 29.32421875 C1.24364377 26.66854595 1.24364377 26.66854595 1.34765625 23.69921875 C1.41339844 22.69632812 1.47914063 21.6934375 1.546875 20.66015625 C1.58425781 19.88929688 1.62164062 19.1184375 1.66015625 18.32421875 C2.98015625 17.99421875 4.30015625 17.66421875 5.66015625 17.32421875 C5.79541764 19.57256371 5.89226429 21.82324389 5.97265625 24.07421875 C6.03066406 25.3271875 6.08867187 26.58015625 6.1484375 27.87109375 C5.66015625 31.32421875 5.66015625 31.32421875 3.390625 33.71484375 C-1.86824429 36.81449203 -7.3352114 37.09787563 -13.33984375 36.32421875 C-19.3728782 34.14744738 -23.37890464 31.12272451 -26.33984375 25.32421875 C-28.11206006 20.89367798 -28.12244584 15.67202502 -26.62109375 11.16796875 C-21.58783376 0.28963264 -11.3854159 -3.28827538 0 0 Z " fill="#5E5E5E" transform="translate(459.33984375,340.67578125)"/>
<path d="M0 0 C18 0 18 0 26 4 C28.3202552 7.86709199 28.19362532 11.97378578 27.375 16.3125 C25.91271063 19.17061104 24.48764867 20.97878545 22 23 C21.34 23 20.68 23 20 23 C20.66 23.928125 21.32 24.85625 22 25.8125 C24 29 24 29 24 32 C24.99 32 25.98 32 27 32 C26.67 33.32 26.34 34.64 26 36 C21.70073737 34.40768051 19.64994267 31.60686641 17 28 C17 27.01 17 26.02 17 25 C12.38 25 7.76 25 3 25 C3 28.63 3 32.26 3 36 C2.01 36 1.02 36 0 36 C0 24.12 0 12.24 0 0 Z M3 3 C3 9.27 3 15.54 3 22 C10.32390157 22.27812284 16.25960242 22.02534124 23 19 C24.55985209 17.44014791 24.24452344 15.91093902 24.3125 13.75 C24.28429384 10.2073069 24.0744356 9.11909696 22.125 6 C18.40032358 2.49442219 15.23858036 2.87961243 10.375 2.9375 C7.94125 2.958125 5.5075 2.97875 3 3 Z " fill="#5C5C5C" transform="translate(720,340)"/>
<path d="M0 0 C1.00023193 0.00523682 2.00046387 0.01047363 3.03100586 0.01586914 C4.1105957 0.0190918 5.19018555 0.02231445 6.30249023 0.02563477 C8.00695312 0.03820312 8.00695312 0.03820312 9.74584961 0.05102539 C11.45611328 0.05779297 11.45611328 0.05779297 13.20092773 0.06469727 C16.02845312 0.07652792 18.85587601 0.09301129 21.68334961 0.11352539 C21.68334961 1.10352539 21.68334961 2.09352539 21.68334961 3.11352539 C14.75334961 3.11352539 7.82334961 3.11352539 0.68334961 3.11352539 C0.68334961 7.40352539 0.68334961 11.69352539 0.68334961 16.11352539 C6.62334961 16.11352539 12.56334961 16.11352539 18.68334961 16.11352539 C18.68334961 17.43352539 18.68334961 18.75352539 18.68334961 20.11352539 C12.74334961 20.11352539 6.80334961 20.11352539 0.68334961 20.11352539 C0.68334961 24.73352539 0.68334961 29.35352539 0.68334961 34.11352539 C7.61334961 34.11352539 14.54334961 34.11352539 21.68334961 34.11352539 C21.68334961 35.10352539 21.68334961 36.09352539 21.68334961 37.11352539 C13.43334961 37.11352539 5.18334961 37.11352539 -3.31665039 37.11352539 C-3.33955935 32.00482728 -3.35948641 26.89630614 -3.37158203 21.78759766 C-3.37662243 20.04833371 -3.38345469 18.30907403 -3.39208984 16.56982422 C-3.40416831 14.07526602 -3.40988147 11.58076366 -3.41430664 9.08618164 C-3.41946793 8.30388687 -3.42462921 7.5215921 -3.4299469 6.71559143 C-3.43014265 4.84785425 -3.37864733 2.98023335 -3.31665039 1.11352539 C-2.31665039 0.11352539 -2.31665039 0.11352539 0 0 Z " fill="#424242" transform="translate(522.316650390625,339.886474609375)"/>
<path d="M0 0 C0.99 0 1.98 0 3 0 C3.33 6.6 3.66 13.2 4 20 C4.98742187 18.94039063 5.97484375 17.88078125 6.9921875 16.7890625 C8.28643951 15.40102411 9.58071137 14.01300424 10.875 12.625 C11.52597656 11.92632812 12.17695313 11.22765625 12.84765625 10.5078125 C13.47285156 9.8375 14.09804687 9.1671875 14.7421875 8.4765625 C15.3182373 7.85861816 15.89428711 7.24067383 16.48779297 6.60400391 C17.63848669 5.38345858 18.81386617 4.18613383 20 3 C20.99 3 21.98 3 23 3 C23.33 2.01 23.66 1.02 24 0 C24.66 0 25.32 0 26 0 C25.67 1.32 25.34 2.64 25 4 C24.34 4 23.68 4 23 4 C22.90976563 4.5878125 22.81953125 5.175625 22.7265625 5.78125 C21.6023391 9.21436232 19.06736704 10.89794171 16.3984375 13.21875 C15.93695313 13.8065625 15.47546875 14.394375 15 15 C15.4152374 18.23450283 16.64523861 20.10950244 18.72265625 22.56640625 C19.26083984 23.21673828 19.79902344 23.86707031 20.35351562 24.53710938 C21.49638838 25.89157686 22.63961983 27.24574175 23.78320312 28.59960938 C24.32009766 29.24865234 24.85699219 29.89769531 25.41015625 30.56640625 C25.90652588 31.15365479 26.40289551 31.74090332 26.91430664 32.34594727 C28 34 28 34 28 37 C25.19619584 36.96358696 23.49206885 36.47644266 21.46240234 34.51123047 C19.80890248 32.52774799 18.23716688 30.50309486 16.6875 28.4375 C16.13771484 27.72658203 15.58792969 27.01566406 15.02148438 26.28320312 C13.66896897 24.5308136 12.32932848 22.77000388 11 21 C6.00735948 24.5838671 6.00735948 24.5838671 3.09765625 29.7734375 C3.08025391 31.06121094 3.08025391 31.06121094 3.0625 32.375 C3.03285156 33.24898438 3.00320312 34.12296875 2.97265625 35.0234375 C2.98167969 35.67570312 2.99070313 36.32796875 3 37 C2.01 37 1.02 37 0 37 C0 24.79 0 12.58 0 0 Z " fill="#878787" transform="translate(201,340)"/>
<path d="M0 0 C7.92 0 15.84 0 24 0 C24 0.99 24 1.98 24 3 C17.07 3 10.14 3 3 3 C3 7.29 3 11.58 3 16 C8.94 16 14.88 16 21 16 C21 17.32 21 18.64 21 20 C15.06 20 9.12 20 3 20 C3 24.62 3 29.24 3 34 C9.93 34 16.86 34 24 34 C24 34.99 24 35.98 24 37 C16.08 37 8.16 37 0 37 C-0.84963762 32.75181188 -1.12883981 29.30918372 -1.1328125 25.01953125 C-1.13376923 24.36546799 -1.13472595 23.71140472 -1.13571167 23.03752136 C-1.13638889 21.66344099 -1.13456674 20.28935734 -1.13037109 18.9152832 C-1.12499025 16.80868417 -1.13034479 14.70229582 -1.13671875 12.59570312 C-1.13605839 11.25781203 -1.13477811 9.91992106 -1.1328125 8.58203125 C-1.13168457 7.36749268 -1.13055664 6.1529541 -1.12939453 4.90161133 C-1 2 -1 2 0 0 Z " fill="#4D4D4D" transform="translate(253,340)"/>
<path d="M0 0 C7.92 0 15.84 0 24 0 C24 0.99 24 1.98 24 3 C17.4 3.33 10.8 3.66 4 4 C3.67 7.96 3.34 11.92 3 16 C9.27 16 15.54 16 22 16 C21.67 17.32 21.34 18.64 21 20 C15.39 20 9.78 20 4 20 C4 24.29 4 28.58 4 33 C10.93 33.33 17.86 33.66 25 34 C25 34.99 25 35.98 25 37 C16.75 37 8.5 37 0 37 C0 24.79 0 12.58 0 0 Z " fill="#565656" transform="translate(670,340)"/>
<path d="M0 0 C0.66 0 1.32 0 2 0 C2 0.66 2 1.32 2 2 C3.98 1.34 5.96 0.68 8 0 C8 1.32 8 2.64 8 4 C8.66 4 9.32 4 10 4 C10.99 7.63 11.98 11.26 13 15 C10.03 14.505 10.03 14.505 7 14 C7.40992188 15.08539063 7.81984375 16.17078125 8.2421875 17.2890625 C8.78651757 18.73435269 9.33078509 20.17966644 9.875 21.625 C10.14441406 22.33785156 10.41382813 23.05070312 10.69140625 23.78515625 C12.2134184 27.83148122 13.66372172 31.88737656 15 36 C14.34 36 13.68 36 13 36 C12.67 37.32 12.34 38.64 12 40 C11.8453125 38.8553125 11.8453125 38.8553125 11.6875 37.6875 C10.95288806 34.81583516 10.3283935 33.76957906 8 32 C7.34 32 6.68 32 6 32 C6 32.66 6 33.32 6 34 C4.68 34 3.36 34 2 34 C2 31.03 2 28.06 2 25 C3.32 24.67 4.64 24.34 6 24 C6 21.36 6 18.72 6 16 C5.34 16 4.68 16 4 16 C4 13.36 4 10.72 4 8 C2.68 8 1.36 8 0 8 C0 5.36 0 2.72 0 0 Z " fill="#F671C3" transform="translate(672,160)"/>
<path d="M0 0 C7.96445453 1.87925332 15.5473348 4.58795996 23.18481445 7.48657227 C27.75043889 9.21136372 32.28581597 10.7332206 37 12 C36.01 12.33 35.02 12.66 34 13 C34 13.99 34 14.98 34 16 C26.37089195 16.99031691 20.4726618 15.00815523 13.53515625 12.13427734 C10.06100351 10.70399382 7.82293148 10 4 10 C3.01 9.67 2.02 9.34 1 9 C0.67 9.99 0.34 10.98 0 12 C-0.33 10.02 -0.66 8.04 -1 6 C-0.67 6.66 -0.34 7.32 0 8 C0.66 8 1.32 8 2 8 C1.34 5.36 0.68 2.72 0 0 Z " fill="#EB66B6" transform="translate(686,169)"/>
<path d="M0 0 C5.83481777 1.16696355 6.38327441 2.11792787 9.75 6.75 C10.52859375 7.79671875 11.3071875 8.8434375 12.109375 9.921875 C13.86795749 12.7850217 14.63341377 14.7007239 15 18 C13.68 18 12.36 18 11 18 C8.69 15.03 6.38 12.06 4 9 C3.67 18.24 3.34 27.48 3 37 C2.01 37 1.02 37 0 37 C0 24.79 0 12.58 0 0 Z " fill="#7E7E7E" transform="translate(379,340)"/>
<path d="M0 0 C9.24 0 18.48 0 28 0 C28 0.99 28 1.98 28 3 C23.71 3 19.42 3 15 3 C15 13.89 15 24.78 15 36 C14.01 36 13.02 36 12 36 C12 25.11 12 14.22 12 3 C8.04 3 4.08 3 0 3 C0 2.01 0 1.02 0 0 Z " fill="#515151" transform="translate(769,340)"/>
<path d="M0 0 C8.91 0 17.82 0 27 0 C27 0.99 27 1.98 27 3 C23.04 3 19.08 3 15 3 C15 13.89 15 24.78 15 36 C14.01 36 13.02 36 12 36 C12 25.11 12 14.22 12 3 C8.04 3 4.08 3 0 3 C0 2.01 0 1.02 0 0 Z " fill="#464646" transform="translate(297,340)"/>
<path d="M0 0 C2.93497017 1.02890604 3.88614379 1.79973901 5.44799805 4.546875 C5.88152588 5.60390625 6.31505371 6.6609375 6.76171875 7.75 C7.24060547 8.91660156 7.71949219 10.08320313 8.21289062 11.28515625 C8.69951172 12.51105469 9.18613281 13.73695313 9.6875 15 C10.18572266 16.19496094 10.68394531 17.38992187 11.19726562 18.62109375 C13.95335527 25.44961435 15.86052993 31.60702174 16 39 C15.34 38.67 14.68 38.34 14 38 C13.375 35.4375 13.375 35.4375 13 33 C12.34 33 11.68 33 11 33 C9.42240512 29.10826873 7.85622907 25.21219242 6.30029297 21.31176758 C5.76985135 19.98663446 5.23635588 18.6627194 4.69970703 17.34008789 C3.92707379 15.43430702 3.16567489 13.5243575 2.40625 11.61328125 C1.71499023 9.89298706 1.71499023 9.89298706 1.00976562 8.13793945 C0.06098523 5.18951721 -0.22082378 3.06392995 0 0 Z " fill="#727170" transform="translate(687,178)"/>
<path d="M0 0 C1.32 0.33 2.64 0.66 4 1 C4 1.66 4 2.32 4 3 C4.66 3 5.32 3 6 3 C12.70387244 16.44874715 12.70387244 16.44874715 13 24 C9.1361104 25.2879632 5.46322278 25.18415915 1.4375 25.1875 C0.65697266 25.19974609 -0.12355469 25.21199219 -0.92773438 25.22460938 C-2.95320035 25.22985217 -4.97822552 25.12234328 -7 25 C-7.66 24.34 -8.32 23.68 -9 23 C-2.4 23 4.2 23 11 23 C11 22.34 11 21.68 11 21 C10.34 21 9.68 21 9 21 C6.69 16.05 4.38 11.1 2 6 C0.68 7.32 -0.64 8.64 -2 10 C-3 8 -3 8 -2.44140625 6.0546875 C-2.15136719 5.33539063 -1.86132812 4.61609375 -1.5625 3.875 C-1.27503906 3.15054687 -0.98757812 2.42609375 -0.69140625 1.6796875 C-0.46324219 1.12539063 -0.23507813 0.57109375 0 0 Z " fill="#2F2F2F" transform="translate(105,341)"/>
<path d="M0 0 C1.91015625 0.82421875 1.91015625 0.82421875 4.66015625 2.32421875 C4.66015625 3.64421875 4.66015625 4.96421875 4.66015625 6.32421875 C3.34015625 6.32421875 2.02015625 6.32421875 0.66015625 6.32421875 C0.33015625 5.66421875 0.00015625 5.00421875 -0.33984375 4.32421875 C-5.29321736 2.67309421 -10.30377995 2.46454737 -15.15234375 4.51171875 C-19.83352033 8.39040791 -22.30373767 11.96315792 -22.90234375 17.94921875 C-22.98613281 18.76648438 -23.06992187 19.58375 -23.15625 20.42578125 C-23.21683594 21.05226563 -23.27742188 21.67875 -23.33984375 22.32421875 C-23.66984375 22.32421875 -23.99984375 22.32421875 -24.33984375 22.32421875 C-24.66984375 19.68421875 -24.99984375 17.04421875 -25.33984375 14.32421875 C-25.66984375 16.63421875 -25.99984375 18.94421875 -26.33984375 21.32421875 C-26.66984375 21.32421875 -26.99984375 21.32421875 -27.33984375 21.32421875 C-27.79426614 14.96230532 -26.987187 10.63588367 -23.33984375 5.32421875 C-16.68468831 -0.99817892 -8.91558899 -2.57495308 0 0 Z " fill="#848484" transform="translate(459.33984375,340.67578125)"/>
<path d="M0 0 C0.66 0 1.32 0 2 0 C0.46356148 3.68069887 -1.78150945 5.98775204 -4.625 8.75 C-5.85089844 9.94882813 -5.85089844 9.94882813 -7.1015625 11.171875 C-7.72804688 11.77515625 -8.35453125 12.3784375 -9 13 C-8.34 14.32 -7.68 15.64 -7 17 C-6.67 16.67 -6.34 16.34 -6 16 C-6 14.68 -6 13.36 -6 12 C-4.46875 10.296875 -4.46875 10.296875 -2.5 8.75 C-1.8503125 8.22921875 -1.200625 7.7084375 -0.53125 7.171875 C-0.0259375 6.78515625 0.479375 6.3984375 1 6 C-0.35937085 8.8605891 -1.64520469 10.85927699 -4 13 C-2.19053899 17.85576879 1.98667215 20.70419606 5.83203125 23.93359375 C7.29344636 25.21100502 8.65450569 26.60101509 10 28 C10 29.32 10 30.64 10 32 C6.59932135 31.40694567 4.83678628 30.2606901 2.3125 27.9375 C0.06239781 25.86995327 -2.17789433 23.85610688 -4.5546875 21.93359375 C-5.38226562 21.25425781 -6.20984375 20.57492188 -7.0625 19.875 C-7.83722656 19.25367188 -8.61195313 18.63234375 -9.41015625 17.9921875 C-11 16 -11 16 -11.02734375 13.55078125 C-9.73501728 10.34207714 -8.02396619 8.66474064 -5.5 6.3125 C-2.32803323 3.4714243 -2.32803323 3.4714243 0 0 Z " fill="#AAAAAA" transform="translate(745,190)"/>
<path d="M0 0 C0.66 0.33 1.32 0.66 2 1 C3.44848582 1.08342159 4.90070869 1.10732861 6.3515625 1.09765625 C7.62773437 1.09282227 7.62773437 1.09282227 8.9296875 1.08789062 C9.81914062 1.07951172 10.70859375 1.07113281 11.625 1.0625 C12.97078125 1.05573242 12.97078125 1.05573242 14.34375 1.04882812 C16.56256648 1.03702591 18.78125018 1.02056155 21 1 C21 1.33 21 1.66 21 2 C15.06 2 9.12 2 3 2 C3 6.62 3 11.24 3 16 C9.93 16 16.86 16 24 16 C24 16.99 24 17.98 24 19 C16.08 19 8.16 19 0 19 C-0.91431569 14.42842156 -0.94773878 11.2675611 -0.5625 6.6875 C-0.46066406 5.43324219 -0.35882813 4.17898438 -0.25390625 2.88671875 C-0.17011719 1.93410156 -0.08632812 0.98148437 0 0 Z " fill="#727272" transform="translate(253,358)"/>
<path d="M0 0 C0.33 0 0.66 0 1 0 C1.33 10.89 1.66 21.78 2 33 C2.33 28.05 2.66 23.1 3 18 C9.27 18 15.54 18 22 18 C22 18.33 22 18.66 22 19 C16.06 19 10.12 19 4 19 C4 23.62 4 28.24 4 33 C10.93 33 17.86 33 25 33 C25 33.99 25 34.98 25 36 C16.75 36 8.5 36 0 36 C0 24.12 0 12.24 0 0 Z " fill="#9E9E9E" transform="translate(519,341)"/>
<path d="M0 0 C2.8125 0.5625 2.8125 0.5625 6 2 C8.97020352 6.69483782 9.51823598 10.4962574 8.62890625 15.97265625 C8 18 8 18 5.9375 20.625 C1.82194138 22.5514317 -0.58774559 21.89740768 -5 21 C-5 20.67 -5 20.34 -5 20 C-3.88625 19.731875 -2.7725 19.46375 -1.625 19.1875 C2.21840951 18.34190981 2.21840951 18.34190981 4 15 C4.55406809 9.9400049 4.55406809 9.9400049 2.1875 5.625 C-1.58106791 2.82549241 -5.11831066 2.75417649 -9.6875 2.4375 C-11.770625 2.293125 -13.85375 2.14875 -16 2 C-16 8.27 -16 14.54 -16 21 C-16.33 21 -16.66 21 -17 21 C-17 14.4 -17 7.8 -17 1 C-9.0625 1.0625 -9.0625 1.0625 -6.55883789 1.09008789 C-4.70566241 1.09723945 -2.85250692 1.0502852 -1 1 C-0.67 0.67 -0.34 0.34 0 0 Z " fill="#838383" transform="translate(166,341)"/>
<path d="M0 0 C3.47056462 0.62798109 6.70126016 1.50305467 10.02734375 2.671875 C11.45409424 3.17037964 11.45409424 3.17037964 12.90966797 3.67895508 C13.90885254 4.0323999 14.90803711 4.38584473 15.9375 4.75 C16.9598877 5.11053467 17.98227539 5.47106934 19.03564453 5.8425293 C21.07892601 6.5632416 23.12190099 7.28482351 25.16455078 8.00732422 C27.63317184 8.8715754 30.10748273 9.71143573 32.58984375 10.53515625 C33.83894531 10.95667969 35.08804688 11.37820312 36.375 11.8125 C37.45523438 12.16957031 38.53546875 12.52664062 39.6484375 12.89453125 C40.42445313 13.25933594 41.20046875 13.62414062 42 14 C42.495 15.485 42.495 15.485 43 17 C34.6598875 14.8661638 26.55813392 12.22434523 18.4375 9.375 C17.26380859 8.96765625 16.09011719 8.5603125 14.88085938 8.140625 C6.29967262 5.14983631 6.29967262 5.14983631 4 4 C4.66 6.64 5.32 9.28 6 12 C5.34 12 4.68 12 4 12 C1.09891706 8.17057052 0.46319911 4.72463088 0 0 Z " fill="#230B1B" transform="translate(682,165)"/>
<path d="M0 0 C3.875 1.75 3.875 1.75 5 4 C5.66 3.34 6.32 2.68 7 2 C8.00256688 7.01283438 8.18209539 10.3240813 6 15 C4 17.375 4 17.375 2 19 C1.34 19 0.68 19 0 19 C0.66 19.928125 1.32 20.85625 2 21.8125 C4 25 4 25 4 28 C4.99 28 5.98 28 7 28 C6.67 29.32 6.34 30.64 6 32 C1.70073737 30.40768051 -0.35005733 27.60686641 -3 24 C-3 23.01 -3 22.02 -3 21 C-7.62 21 -12.24 21 -17 21 C-17 20.67 -17 20.34 -17 20 C-12.38 20 -7.76 20 -3 20 C-3 19.34 -3 18.68 -3 18 C-3.99 17.67 -4.98 17.34 -6 17 C-3.03 16.01 -0.06 15.02 3 14 C3.43221723 6.49881081 3.43221723 6.49881081 0 0 Z " fill="#898989" transform="translate(740,344)"/>
<path d="M0 0 C5.94 0 11.88 0 18 0 C18 0.66 18 1.32 18 2 C12.72 1.67 7.44 1.34 2 1 C2 7.6 2 14.2 2 21 C4.536875 20.87625 7.07375 20.7525 9.6875 20.625 C10.47729248 20.59100098 11.26708496 20.55700195 12.08081055 20.52197266 C16.10090029 20.29730713 19.31695831 19.78703798 23 18 C22 21 22 21 19.92578125 22.1796875 C16.30769297 23.19410477 12.90771435 23.21756036 9.1875 23.125 C8.14819336 23.11146484 8.14819336 23.11146484 7.08789062 23.09765625 C5.39177605 23.07426157 3.69584129 23.03839641 2 23 C2 26.96 2 30.92 2 35 C1.34 35 0.68 35 0 35 C0 23.45 0 11.9 0 0 Z " fill="#111111" transform="translate(620,341)"/>
<path d="M0 0 C4 1 4 1 5 2 C5.40967226 5.63135857 5.51653905 9.28805359 5.6875 12.9375 C5.74744141 13.96552734 5.80738281 14.99355469 5.86914062 16.05273438 C5.91619141 17.03435547 5.96324219 18.01597656 6.01171875 19.02734375 C6.05772217 19.93218506 6.10372559 20.83702637 6.15112305 21.76928711 C6 24 6 24 4 26 C2.68 25.67 1.36 25.34 0 25 C0 16.75 0 8.5 0 0 Z " fill="#8E3E71" transform="translate(686,128)"/>
<path d="M0 0 C3.02496581 1.35062287 5.0805694 2.85029237 7.3828125 5.22265625 C8.29740234 6.15368164 8.29740234 6.15368164 9.23046875 7.10351562 C9.85566406 7.74998047 10.48085938 8.39644531 11.125 9.0625 C12.37536074 10.3472393 13.62786516 11.62989681 14.8828125 12.91015625 C15.43340332 13.47871338 15.98399414 14.04727051 16.55126953 14.63305664 C17.97414012 16.10729905 17.97414012 16.10729905 20 17 C20 18.32 20 19.64 20 21 C18.68 21 17.36 21 16 21 C16 20.34 16 19.68 16 19 C14.02 19 12.04 19 10 19 C10 18.34 10 17.68 10 17 C9.34 17 8.68 17 8 17 C8 16.34 8 15.68 8 15 C7.34 14.67 6.68 14.34 6 14 C6 13.34 6 12.68 6 12 C5.34 11.67 4.68 11.34 4 11 C3.33333333 8.66666667 2.66666667 6.33333333 2 4 C1.34 3.67 0.68 3.34 0 3 C0 2.01 0 1.02 0 0 Z " fill="#D262A3" transform="translate(654,139)"/>
<path d="M0 0 C1.32 0 2.64 0 4 0 C4 11.88 4 23.76 4 36 C2.68 36 1.36 36 0 36 C0 24.12 0 12.24 0 0 Z " fill="#5F5F5F" transform="translate(347,340)"/>
<path d="M0 0 C0.33 0 0.66 0 1 0 C1 11.88 1 23.76 1 36 C1.66 36 2.32 36 3 36 C3 32.04 3 28.08 3 24 C4.53720703 23.92652344 4.53720703 23.92652344 6.10546875 23.8515625 C7.4661706 23.77648929 8.82684644 23.70094345 10.1875 23.625 C10.86103516 23.5940625 11.53457031 23.563125 12.22851562 23.53125 C16.19678975 23.29896078 19.40729879 22.71612524 23 21 C22.2265625 21.2475 22.2265625 21.2475 21.4375 21.5 C18.26636124 22.15049 15.22781666 22.0620734 12 22 C12 21.67 12 21.34 12 21 C13.258125 20.731875 14.51625 20.46375 15.8125 20.1875 C18.10144714 19.59302079 19.88762542 19.06524976 21.9375 17.875 C23.70287733 14.75962824 23.70957067 11.54323784 24 8 C24.33 8 24.66 8 25 8 C25.06058594 8.62648438 25.12117187 9.25296875 25.18359375 9.8984375 C25.30927734 11.12433594 25.30927734 11.12433594 25.4375 12.375 C25.55931641 13.59316406 25.55931641 13.59316406 25.68359375 14.8359375 C25.89090114 17.04272805 25.89090114 17.04272805 27 19 C23.11428641 23.09575216 21.21076886 24.93959648 15.42578125 25.09765625 C14.05465342 25.09103244 12.68354283 25.07914198 11.3125 25.0625 C10.61060547 25.05798828 9.90871094 25.05347656 9.18554688 25.04882812 C7.45699462 25.03706927 5.72848635 25.01913454 4 25 C4 28.96 4 32.92 4 37 C2.68 37 1.36 37 0 37 C0 24.79 0 12.58 0 0 Z " fill="#C3C3C3" transform="translate(619,340)"/>
<path d="M0 0 C5 1 5 1 6.8125 3.1875 C8.14528737 6.34410166 8.2366951 8.60737019 8 12 C5.49962266 9.82575883 4.56371414 8.26954202 4 5 C3.34 5 2.68 5 2 5 C2 15.23 2 25.46 2 36 C1.34 36 0.68 36 0 36 C0 24.12 0 12.24 0 0 Z " fill="#707070" transform="translate(30,340)"/>
<path d="M0 0 C8.25 0 16.5 0 25 0 C25 1.32 25 2.64 25 4 C16.75 4 8.5 4 0 4 C0 2.68 0 1.36 0 0 Z " fill="#662B4F" transform="translate(643,172)"/>
<path d="M0 0 C1.96630396 2.94945594 3.25740853 5.73697474 4.625 9 C5.07101562 10.051875 5.51703125 11.10375 5.9765625 12.1875 C7 15 7 15 7 18 C8.65 17.01 10.3 16.02 12 15 C11 17 10 19 9 21 C8.01 21 7.02 21 6 21 C6 21.66 6 22.32 6 23 C6.99 23.33 7.98 23.66 9 24 C7.68 24 6.36 24 5 24 C4.59007812 22.89140625 4.18015625 21.7828125 3.7578125 20.640625 C3.21365899 19.17703971 2.66938165 17.71350045 2.125 16.25 C1.85558594 15.52039063 1.58617187 14.79078125 1.30859375 14.0390625 C-0.27957929 9.76921331 -0.27957929 9.76921331 -2.2578125 5.671875 C-3 4 -3 4 -2 1 C-1.34 2.65 -0.68 4.3 0 6 C0 4.02 0 2.04 0 0 Z " fill="#8C8C8C" transform="translate(702,210)"/>
<path d="M0 0 C0.99 0 1.98 0 3 0 C3.13526139 2.24834496 3.23210804 4.49902514 3.3125 6.75 C3.37050781 8.00296875 3.42851562 9.2559375 3.48828125 10.546875 C3 14 3 14 0.73046875 16.515625 C-2 18 -2 18 -3.984375 17.78515625 C-4.64953125 17.52605469 -5.3146875 17.26695312 -6 17 C-7.74690919 16.7856066 -9.4974023 16.59892347 -11.25 16.4375 C-12.14203125 16.35371094 -13.0340625 16.26992188 -13.953125 16.18359375 C-14.62859375 16.12300781 -15.3040625 16.06242187 -16 16 C-16 15.67 -16 15.34 -16 15 C-15.24074219 14.95101563 -14.48148437 14.90203125 -13.69921875 14.8515625 C-12.70535156 14.77679688 -11.71148437 14.70203125 -10.6875 14.625 C-9.70136719 14.55539062 -8.71523438 14.48578125 -7.69921875 14.4140625 C-4.78471567 14.16134528 -4.78471567 14.16134528 -2 12 C-1.45368617 9.37654883 -1.45368617 9.37654883 -1.375 6.4375 C-1.08253095 1.08253095 -1.08253095 1.08253095 0 0 Z " fill="#8A8A8A" transform="translate(462,358)"/>
<path d="M0 0 C0.99 0 1.98 0 3 0 C3 11.55 3 23.1 3 35 C2.34 35 1.68 35 1 35 C0.67 25.1 0.34 15.2 0 5 C-0.33 6.32 -0.66 7.64 -1 9 C-1.99 9.33 -2.98 9.66 -4 10 C-4 8.68 -4 7.36 -4 6 C-3.34 6 -2.68 6 -2 6 C-1.34 4.02 -0.68 2.04 0 0 Z " fill="#1C1C1C" transform="translate(63,341)"/>
<path d="M0 0 C2.2421875 0.15234375 2.2421875 0.15234375 5 1 C7.1328125 3.50390625 7.1328125 3.50390625 9.125 6.5625 C11.03041886 9.56979374 11.03041886 9.56979374 13 12 C13.99 12 14.98 12 16 12 C15.67 12.99 15.34 13.98 15 15 C14.01 15 13.02 15 12 15 C11.67 16.32 11.34 17.64 11 19 C10.31164062 17.89591797 10.31164062 17.89591797 9.609375 16.76953125 C8.99578125 15.79371094 8.3821875 14.81789063 7.75 13.8125 C6.84507812 12.36810547 6.84507812 12.36810547 5.921875 10.89453125 C4.04978673 7.96046312 4.04978673 7.96046312 1.765625 5.32421875 C0 3 0 3 0 0 Z " fill="#7B7B7B" transform="translate(566,340)"/>
<path d="M0 0 C3.47480357 3.39456832 6.70876573 6.88816571 9.8125 10.625 C10.60269531 11.56601562 11.39289063 12.50703125 12.20703125 13.4765625 C14 16 14 16 14 19 C10.35590712 18.74756728 9.14994237 18.15280295 6.54296875 15.49609375 C5.76566406 14.48675781 4.98835937 13.47742188 4.1875 12.4375 C3.39730469 11.42558594 2.60710937 10.41367187 1.79296875 9.37109375 C1.20128906 8.58863281 0.60960937 7.80617188 0 7 C0.33 6.34 0.66 5.68 1 5 C1.10540926 2.78918149 1.10540926 2.78918149 0 0 Z " fill="#989898" transform="translate(215,358)"/>
<path d="M0 0 C0.66 0 1.32 0 2 0 C3.5078125 1.828125 3.5078125 1.828125 5.125 4.25 C5.66382813 5.03890625 6.20265625 5.8278125 6.7578125 6.640625 C8 9 8 9 8 13 C6.15234375 12.78125 6.15234375 12.78125 4 12 C2.75390625 9.96875 2.75390625 9.96875 1.5625 7.5 C-0.50343246 4.11401719 -1.36361469 3.15852745 -5.27734375 2.18359375 C-8.54300049 1.96021006 -11.72991522 1.87870605 -15 2 C-15 5.63 -15 9.26 -15 13 C-15.33 13 -15.66 13 -16 13 C-16 9.04 -16 5.08 -16 1 C-14.92878906 1.01160156 -13.85757813 1.02320313 -12.75390625 1.03515625 C-11.35677257 1.04453299 -9.95963701 1.05363331 -8.5625 1.0625 C-7.85544922 1.07087891 -7.14839844 1.07925781 -6.41992188 1.08789062 C-4.61306441 1.09653588 -2.80612397 1.05220011 -1 1 C-0.67 0.67 -0.34 0.34 0 0 Z " fill="#999999" transform="translate(165,363)"/>
<path d="M0 0 C0.99 0.99 1.98 1.98 3 3 C1.61641935 7.49834104 -0.14292308 11.57440628 -2.3125 15.75 C-2.88613281 16.87921875 -3.45976563 18.0084375 -4.05078125 19.171875 C-6.17915124 22.25993085 -7.43679398 23.04326999 -11 24 C-11 23.34 -11 22.68 -11 22 C-10.54496094 21.58234375 -10.08992188 21.1646875 -9.62109375 20.734375 C-7.46920604 18.43211442 -6.95269291 16.2606095 -6.0625 13.25 C-4.52604158 8.36180796 -2.74465103 4.31302305 0 0 Z " fill="#515151" transform="translate(58,347)"/>
<path d="M0 0 C0.33 0 0.66 0 1 0 C1 5.94 1 11.88 1 18 C5.95 18 10.9 18 16 18 C16 18.66 16 19.32 16 20 C11.38 20 6.76 20 2 20 C2 23.96 2 27.92 2 32 C1.01 32.495 1.01 32.495 0 33 C0 22.11 0 11.22 0 0 Z " fill="#171717" transform="translate(721,344)"/>
<path d="M0 0 C0.33 0 0.66 0 1 0 C1 7.26 1 14.52 1 22 C5.81375192 18.72171131 5.81375192 18.72171131 7 16 C7.66 16 8.32 16 9 16 C9 15.34 9 14.68 9 14 C9.66 14 10.32 14 11 14 C12.2890625 15.75 12.2890625 15.75 13.625 18 C14.07101563 18.7425 14.51703125 19.485 14.9765625 20.25 C15.48316406 21.11625 15.48316406 21.11625 16 22 C13 22 13 22 10.8125 20 C10.214375 19.34 9.61625 18.68 9 18 C5.47062368 20.78295469 2.45480763 23.21953148 1.3125 27.69140625 C1.08928112 30.1433261 0.96533664 32.53890125 1 35 C0.67 35 0.34 35 0 35 C0 23.45 0 11.9 0 0 Z " fill="#020202" transform="translate(202,341)"/>
<path d="M0 0 C0.66 0.33 1.32 0.66 2 1 C1.67 1.66 1.34 2.32 1 3 C1.99 3.33 2.98 3.66 4 4 C3.319375 4.495 2.63875 4.99 1.9375 5.5 C-1.22675031 8.19297898 -3.62134205 11.11437605 -6.15625 14.390625 C-8 16 -8 16 -10.71875 16.234375 C-11.84796875 16.11835938 -11.84796875 16.11835938 -13 16 C-13 15.34 -13 14.68 -13 14 C-12.01 14 -11.02 14 -10 14 C-9.5978125 13.1646875 -9.5978125 13.1646875 -9.1875 12.3125 C-6.67707748 7.42378247 -4.01781697 3.80063768 0 0 Z " fill="#747474" transform="translate(721,217)"/>
<path d="M0 0 C0.66 0 1.32 0 2 0 C2.391875 0.598125 2.78375 1.19625 3.1875 1.8125 C4.97967106 4.32244444 4.97967106 4.32244444 8.625 5.5 C12 7 12 7 12.9375 9.1875 C12.958125 9.785625 12.97875 10.38375 13 11 C13.61875 11.12375 14.2375 11.2475 14.875 11.375 C17 12 17 12 19 14 C20.98356483 14.71408334 22.98315437 15.38617742 25 16 C25 16.66 25 17.32 25 18 C18.86277186 17.67698799 13.83769272 14.6043679 9 11 C9 10.34 9 9.68 9 9 C8.443125 8.79375 7.88625 8.5875 7.3125 8.375 C4.05356595 6.43725543 2.30433531 4.00843777 0 1 C0 0.67 0 0.34 0 0 Z " fill="#F094CE" transform="translate(631,191)"/>
<path d="M0 0 C5.05043522 7.57565283 3.07593603 19.86582701 1.5703125 28.390625 C1 31 1 31 0 34 C0.66 34.33 1.32 34.66 2 35 C-1.34249629 34.40312566 -3.46436342 33.26396123 -6 31 C-6 30.34 -6 29.68 -6 29 C-4.35 28.67 -2.7 28.34 -1 28 C0.20514375 18.66013591 0.09213655 9.39792784 0 0 Z " fill="#F48BCC" transform="translate(722,144)"/>
<path d="M0 0 C0.33 0.66 0.66 1.32 1 2 C2.32 1.34 3.64 0.68 5 0 C3.45724357 3.26881066 1.63563156 6.24722273 -0.375 9.25 C-0.96023438 10.14203125 -1.54546875 11.0340625 -2.1484375 11.953125 C-3.06496094 12.96632813 -3.06496094 12.96632813 -4 14 C-5.32 14 -6.64 14 -8 14 C-7.37606349 10.23880524 -5.65226285 7.81039958 -3.4375 4.75 C-2.79683594 3.85796875 -2.15617188 2.9659375 -1.49609375 2.046875 C-0.75552734 1.03367187 -0.75552734 1.03367187 0 0 Z " fill="#A0A0A0" transform="translate(573,363)"/>
<path d="M0 0 C0.99 0 1.98 0 3 0 C2.47515308 4.55700425 0.68492697 7.192874 -2.0625 10.8125 C-2.79597656 11.78832031 -3.52945313 12.76414062 -4.28515625 13.76953125 C-4.85105469 14.50558594 -5.41695312 15.24164063 -6 16 C-6.33 15.34 -6.66 14.68 -7 14 C-6.67 13.34 -6.34 12.68 -6 12 C-6.66 12 -7.32 12 -8 12 C-6.60178299 9.02962512 -4.99407657 6.40407467 -3.0625 3.75 C-2.55847656 3.04359375 -2.05445313 2.3371875 -1.53515625 1.609375 C-1.02855469 1.07828125 -0.52195312 0.5471875 0 0 Z " fill="#BDBDBD" transform="translate(590,340)"/>
<path d="M0 0 C1.73017508 0.45451184 3.45909877 0.91378857 5.1875 1.375 C6.15042969 1.63023437 7.11335937 1.88546875 8.10546875 2.1484375 C10.82210207 2.94766296 13.39137175 3.9031362 16 5 C14.3125 6.125 14.3125 6.125 12 7 C9.25 6.125 9.25 6.125 7 5 C7 5.66 7 6.32 7 7 C5.68 7 4.36 7 3 7 C3 7.66 3 8.32 3 9 C2.34 9 1.68 9 1 9 C0.67 9.99 0.34 10.98 0 12 C-0.33 10.02 -0.66 8.04 -1 6 C-0.67 6.66 -0.34 7.32 0 8 C0.66 8 1.32 8 2 8 C1.34 5.36 0.68 2.72 0 0 Z " fill="#DB69AB" transform="translate(686,169)"/>
<path d="M0 0 C3.02496581 1.35062287 5.0805694 2.85029237 7.3828125 5.22265625 C8.29740234 6.15368164 8.29740234 6.15368164 9.23046875 7.10351562 C9.85566406 7.74998047 10.48085938 8.39644531 11.125 9.0625 C12.37536074 10.3472393 13.62786516 11.62989681 14.8828125 12.91015625 C15.43340332 13.47871338 15.98399414 14.04727051 16.55126953 14.63305664 C17.97414012 16.10729905 17.97414012 16.10729905 20 17 C20 17.99 20 18.98 20 20 C16.23358366 18.44657022 13.93057511 16.10232647 11.125 13.1875 C8.31229289 10.29989832 5.56008058 7.53472922 2.375 5.0625 C1.59125 4.381875 0.8075 3.70125 0 3 C0 2.01 0 1.02 0 0 Z " fill="#360B2C" transform="translate(654,139)"/>
<path d="M0 0 C1.65 0 3.3 0 5 0 C5.33 1.32 5.66 2.64 6 4 C4.35 3.01 2.7 2.02 1 1 C0.63743142 2.4562672 0.28520207 3.91511185 -0.0625 5.375 C-0.25972656 6.18710937 -0.45695312 6.99921875 -0.66015625 7.8359375 C-1.22109319 10.04161284 -1.22109319 10.04161284 0 12 C-0.77734375 14.1640625 -0.77734375 14.1640625 -1.9375 16.625 C-2.31777344 17.44226563 -2.69804688 18.25953125 -3.08984375 19.1015625 C-3.39019531 19.72804688 -3.69054687 20.35453125 -4 21 C-4.99 20.01 -5.98 19.02 -7 18 C-5.06375702 11.79522136 -2.74390859 5.89174281 0 0 Z " fill="#9A9A9A" transform="translate(104,340)"/>
<path d="M0 0 C6.27 0 12.54 0 19 0 C18.67 1.32 18.34 2.64 18 4 C13.38 4 8.76 4 4 4 C4.33 3.01 4.66 2.02 5 1 C3.35 1 1.7 1 0 1 C0 0.67 0 0.34 0 0 Z " fill="#7C7C7C" transform="translate(673,356)"/>
<path d="M0 0 C0.99 0.33 1.98 0.66 3 1 C5.97111997 1 8.87227529 0.45880597 11.80859375 0.0234375 C14 0 14 0 17 2 C16.01 2 15.02 2 14 2 C14 2.99 14 3.98 14 5 C7.48208608 5.3540919 2.82478551 5.03901852 -3 2 C-2.01 1.34 -1.02 0.68 0 0 Z " fill="#EF85C8" transform="translate(706,180)"/>
<path d="M0 0 C-1.65 0.33 -3.3 0.66 -5 1 C-5 1.66 -5 2.32 -5 3 C-7.81763407 5.81763407 -9.28566635 6.94608803 -13.3125 7.25 C-14.199375 7.1675 -15.08625 7.085 -16 7 C-16 7.66 -16 8.32 -16 9 C-17.98 9.33 -19.96 9.66 -22 10 C-17.02997245 4.20163453 -7.82545352 -2.42858902 0 0 Z " fill="#F292D1" transform="translate(661,111)"/>
<path d="M0 0 C0 1.98 0 3.96 0 6 C8.415 5.505 8.415 5.505 17 5 C17 5.66 17 6.32 17 7 C15.74703125 7.02578125 14.4940625 7.0515625 13.203125 7.078125 C11.55204877 7.13441169 9.90100845 7.1917589 8.25 7.25 C7.425 7.26417969 6.6 7.27835937 5.75 7.29296875 C0.6888713 7.46710812 0.6888713 7.46710812 -3.578125 10.046875 C-4.04734375 10.69140625 -4.5165625 11.3359375 -5 12 C-6.39864092 8.82127065 -5.89282517 7.69888978 -4.6875 4.3125 C-2.49056604 0 -2.49056604 0 0 0 Z " fill="#848484" transform="translate(99,357)"/>
<path d="M0 0 C11.21712538 2.82568807 11.21712538 2.82568807 14 7 C14 8.32 14 9.64 14 11 C10.42973289 10.40762384 8.54183549 9.02819396 5.875 6.625 C5.19179688 6.01914063 4.50859375 5.41328125 3.8046875 4.7890625 C2 3 2 3 0 0 Z " fill="#7C7C7C" transform="translate(741,211)"/>
<path d="M0 0 C1.051875 0.2475 1.051875 0.2475 2.125 0.5 C5.13888194 1.02415338 7.94713625 1.07099683 11 1 C11 1.99 11 2.98 11 4 C10.01 4 9.02 4 8 4 C8.33 4.99 8.66 5.98 9 7 C6.41752649 6.38020636 3.91574485 5.66350702 1.375 4.875 C-1.84100227 3.64659749 -1.84100227 3.64659749 -4 5 C-4 4.01 -4 3.02 -4 2 C-2.68 2 -1.36 2 0 2 C0 1.34 0 0.68 0 0 Z " fill="#F281C9" transform="translate(693,174)"/>
<path d="M0 0 C5.27203646 -0.27036084 9.92523206 0.73694665 15 2 C14.67 2.66 14.34 3.32 14 4 C13.8509288 6.0745356 13.8509288 6.0745356 15 8 C4.44191344 4.92482916 4.44191344 4.92482916 0 3 C0 2.01 0 1.02 0 0 Z " fill="#E461AE" transform="translate(705,170)"/>
<path d="M0 0 C1 3 1 3 0.22265625 5.04296875 C-0.16019531 5.75066406 -0.54304688 6.45835937 -0.9375 7.1875 C-1.31777344 7.90292969 -1.69804688 8.61835938 -2.08984375 9.35546875 C-2.39019531 9.89816406 -2.69054688 10.44085938 -3 11 C-3.66 11 -4.32 11 -5 11 C-5 11.66 -5 12.32 -5 13 C-3.68 12.34 -2.36 11.68 -1 11 C-1.33 11.99 -1.66 12.98 -2 14 C-3.32 14 -4.64 14 -6 14 C-6.8638129 12.54735962 -7.71580454 11.0876837 -8.5625 9.625 C-9.03816406 8.81289063 -9.51382813 8.00078125 -10.00390625 7.1640625 C-10.33261719 6.44992187 -10.66132812 5.73578125 -11 5 C-10.67 4.34 -10.34 3.68 -10 3 C-9.01 4.65 -8.02 6.3 -7 8 C-7 6.35 -7 4.7 -7 3 C-6.01 4.32 -5.02 5.64 -4 7 C-2.68 4.69 -1.36 2.38 0 0 Z " fill="#A5A5A5" transform="translate(52,358)"/>
<path d="M0 0 C2.7385669 1.0041412 3.81209575 1.66177234 5.25 4.25 C6.07592799 7.27840261 6.14534994 9.8749763 6 13 C5.01 13 4.02 13 3 13 C-0.42857143 4.57142857 -0.42857143 4.57142857 0 0 Z " fill="#565754" transform="translate(687,178)"/>
<path d="M0 0 C0.66 0 1.32 0 2 0 C1.75 3.375 1.75 3.375 1 7 C-0.875 8.1875 -0.875 8.1875 -3 9 C-4.01241685 10.32392972 -5.01439389 11.65599167 -6 13 C-6.66 13 -7.32 13 -8 13 C-7.67 11.35 -7.34 9.7 -7 8 C-6.01 7.67 -5.02 7.34 -4 7 C-4 5.68 -4 4.36 -4 3 C-3.01 2.67 -2.02 2.34 -1 2 C-0.67 1.34 -0.34 0.68 0 0 Z " fill="#464646" transform="translate(582,352)"/>
<path d="M0 0 C0.66 0.66 1.32 1.32 2 2 C-1 5 -4 8 -7 11 C-6.34 12.65 -5.68 14.3 -5 16 C-6.875 15.75 -6.875 15.75 -9 15 C-9.66 13.68 -10.32 12.36 -11 11 C-7.37 7.37 -3.74 3.74 0 0 Z " fill="#141414" transform="translate(746,192)"/>
<path d="M0 0 C7.625 1.875 7.625 1.875 11 3 C10.38722388 5.96175123 9.74627478 7.38058783 8 10 C7.34 9.67 6.68 9.34 6 9 C6 7.68 6 6.36 6 5 C3.36 4.67 0.72 4.34 -2 4 C-0.68 3.67 0.64 3.34 2 3 C1.67 2.67 1.34 2.34 1 2 C0.67 1.34 0.34 0.68 0 0 Z " fill="#888888" transform="translate(741,185)"/>
<path d="M0 0 C4.24875288 0.62425455 8.22422463 1.56145698 12.3125 2.875 C13.88451172 3.36613281 13.88451172 3.36613281 15.48828125 3.8671875 C16.31714844 4.24101562 17.14601563 4.61484375 18 5 C18.33 5.99 18.66 6.98 19 8 C12.51292846 6.3186083 6.2322365 4.46937673 0 2 C0 1.34 0 0.68 0 0 Z " fill="#2C1426" transform="translate(706,174)"/>
<path d="M0 0 C2.5934165 0.37048807 4.08065587 1.05601102 6.25 2.5625 C8.87519356 6.21901961 8.50157597 8.55746996 8 13 C7.01 13.66 6.02 14.32 5 15 C5 11.7 5 8.4 5 5 C3.68 4.34 2.36 3.68 1 3 C0.67 2.01 0.34 1.02 0 0 Z " fill="#5E5E5E" transform="translate(639,343)"/>
<path d="M0 0 C2.22825644 2.22825644 2.69239369 3.65761628 3.625 6.625 C3.88539062 7.44226563 4.14578125 8.25953125 4.4140625 9.1015625 C4.60742188 9.72804688 4.80078125 10.35453125 5 11 C4.34 11 3.68 11 3 11 C2.67 11.99 2.34 12.98 2 14 C1.13372601 12.40233897 0.28233535 10.79660056 -0.5625 9.1875 C-1.03816406 8.29417969 -1.51382813 7.40085937 -2.00390625 6.48046875 C-3 4 -3 4 -2 1 C-1.67 1.66 -1.34 2.32 -1 3 C-0.67 2.01 -0.34 1.02 0 0 Z " fill="#B2B2B2" transform="translate(112,348)"/>
<path d="M0 0 C0.94101562 0.28359375 1.88203125 0.5671875 2.8515625 0.859375 C4.25535156 1.26929688 4.25535156 1.26929688 5.6875 1.6875 C8.33367345 2.56214557 10.90266099 3.54237583 13.4765625 4.609375 C13.1465625 5.269375 12.8165625 5.929375 12.4765625 6.609375 C8.15724863 5.99325665 4.22447475 4.96698922 0.1015625 3.546875 C-0.95804688 3.18464844 -2.01765625 2.82242188 -3.109375 2.44921875 C-3.90601563 2.17207031 -4.70265625 1.89492187 -5.5234375 1.609375 C-2.5234375 -0.390625 -2.5234375 -0.390625 0 0 Z " fill="#331534" transform="translate(693.5234375,168.390625)"/>
<path d="M0 0 C0.33 0 0.66 0 1 0 C1 11.55 1 23.1 1 35 C-0.32 34.34 -1.64 33.68 -3 33 C-2.67 32.01 -2.34 31.02 -2 30 C-1.67 30.33 -1.34 30.66 -1 31 C-0.67 20.77 -0.34 10.54 0 0 Z " fill="#030303" transform="translate(406,341)"/>
<path d="M0 0 C0.99 0 1.98 0 3 0 C3.67408308 1.26691507 4.33900497 2.53870749 5 3.8125 C5.556875 4.87404297 5.556875 4.87404297 6.125 5.95703125 C7 8 7 8 7 11 C5.35 10.67 3.7 10.34 2 10 C1.34 6.7 0.68 3.4 0 0 Z " fill="#7B7B7B" transform="translate(118,366)"/>
<path d="M0 0 C1.98 0.99 1.98 0.99 4 2 C3.67 2.66 3.34 3.32 3 4 C2.34 4 1.68 4 1 4 C1 14.23 1 24.46 1 35 C0.67 35 0.34 35 0 35 C0 23.45 0 11.9 0 0 Z " fill="#060606" transform="translate(31,341)"/>
<path d="M0 0 C1.98 0.99 1.98 0.99 4 2 C3.01 2.33 2.02 2.66 1 3 C1 13.56 1 24.12 1 35 C0.67 35 0.34 35 0 35 C0 23.45 0 11.9 0 0 Z " fill="#010101" transform="translate(380,341)"/>
<path d="M0 0 C3.13506611 0.33589994 4.025249 1.02665172 6.25 3.375 C8 6 8 6 8 9 C5.6875 8.875 5.6875 8.875 3 8 C0 3.13793103 0 3.13793103 0 0 Z " fill="#7B7B7B" transform="translate(221,368)"/>
<path d="M0 0 C1.89551022 -0.05441656 3.7914792 -0.09298035 5.6875 -0.125 C6.74324219 -0.14820313 7.79898437 -0.17140625 8.88671875 -0.1953125 C12.02251859 0.00141271 14.17645373 0.66942346 17 2 C17 3.32 17 4.64 17 6 C15.68 6 14.36 6 13 6 C12.67 5.34 12.34 4.68 12 4 C8.11298145 2.05649073 4.28906722 1.50459614 0 1 C0 0.67 0 0.34 0 0 Z " fill="#565656" transform="translate(447,341)"/>
<path d="M0 0 C1.91796875 0.72265625 1.91796875 0.72265625 4 2 C4.86328125 4.05859375 4.86328125 4.05859375 5.3125 6.4375 C5.47363281 7.21996094 5.63476562 8.00242188 5.80078125 8.80859375 C6 11 6 11 5 14 C4.34 12.02 3.68 10.04 3 8 C2.34 8 1.68 8 1 8 C-0.35439668 5.29120665 -0.06501451 2.99066732 0 0 Z " fill="#4A4545" transform="translate(697,203)"/>
<path d="M0 0 C0.33 0 0.66 0 1 0 C1.02708567 1.60407328 1.04643483 3.2082785 1.0625 4.8125 C1.07410156 5.70582031 1.08570313 6.59914063 1.09765625 7.51953125 C1 10 1 10 0 13 C-3.941316 15.25218057 -6.65621014 15.01018369 -11 14 C-11 13.67 -11 13.34 -11 13 C-9.329375 12.5978125 -9.329375 12.5978125 -7.625 12.1875 C-3.78159049 11.34190981 -3.78159049 11.34190981 -2 8 C-1.34 8 -0.68 8 0 8 C0 5.36 0 2.72 0 0 Z " fill="#494949" transform="translate(172,348)"/>
<path d="M0 0 C1.60379341 -0.05416188 3.20811406 -0.09286638 4.8125 -0.125 C5.70582031 -0.14820313 6.59914063 -0.17140625 7.51953125 -0.1953125 C10 0 10 0 13 2 C13 2.66 13 3.32 13 4 C13.99 4.33 14.98 4.66 16 5 C14 6 14 6 10.7421875 5.00390625 C9.4502948 4.53110016 8.16131362 4.05028031 6.875 3.5625 C6.21628906 3.31951172 5.55757812 3.07652344 4.87890625 2.82617188 C3.25008662 2.22421679 1.62470425 1.61297588 0 1 C0 0.67 0 0.34 0 0 Z " fill="#D067A3" transform="translate(682,164)"/>
<path d="M0 0 C2.5654594 2.5654594 2.54046087 4.47686668 3 8 C4.65 7.01 6.3 6.02 8 5 C7 7 6 9 5 11 C4.01 11 3.02 11 2 11 C2 11.66 2 12.32 2 13 C2.99 13.33 3.98 13.66 5 14 C3.68 14 2.36 14 1 14 C0.20046862 10.71303767 -0.09658936 9.28976808 1 6 C0.72428861 3.99124558 0.39764263 1.98821313 0 0 Z " fill="#9A9A9A" transform="translate(706,220)"/>
<path d="M0 0 C0.33 0 0.66 0 1 0 C1 3.3 1 6.6 1 10 C1.66 10 2.32 10 3 10 C3.66 11.65 4.32 13.3 5 15 C3.68 15 2.36 15 1 15 C-1 13 -1 13 -1.23046875 10.46875 C-1.21628906 9.4890625 -1.20210938 8.509375 -1.1875 7.5 C-1.18105469 6.5203125 -1.17460937 5.540625 -1.16796875 4.53125 C-1 2 -1 2 0 0 Z " fill="#585858" transform="translate(434,353)"/>
<path d="M0 0 C2.31 0 4.62 0 7 0 C6.34 0.66 5.68 1.32 5 2 C4.34 1.67 3.68 1.34 3 1 C3 1.99 3 2.98 3 4 C3.99 4.33 4.98 4.66 6 5 C6.33 5.99 6.66 6.98 7 8 C4.69 8 2.38 8 0 8 C0 5.36 0 2.72 0 0 Z " fill="#E06AB4" transform="translate(651,138)"/>
<path d="M0 0 C0.99 0.99 1.98 1.98 3 3 C1.90931332 6.77545388 1.0916909 9.47043472 -2 12 C-2 11.01 -2 10.02 -2 9 C-2.66 9 -3.32 9 -4 9 C-2.80100302 5.9168649 -1.52299523 2.93720508 0 0 Z " fill="#9C9C9C" transform="translate(58,347)"/>
<path d="M0 0 C3.28815837 3.28815837 2.97713028 7.14558716 3.09765625 11.6484375 C3.08605469 12.87820312 3.07445312 14.10796875 3.0625 15.375 C3.05347656 16.62023437 3.04445313 17.86546875 3.03515625 19.1484375 C3.02355469 20.08945313 3.01195312 21.03046875 3 22 C2.67 22 2.34 22 2 22 C1.93941406 21.30132812 1.87882813 20.60265625 1.81640625 19.8828125 C1.73261719 18.97273438 1.64882813 18.06265625 1.5625 17.125 C1.48128906 16.22007812 1.40007813 15.31515625 1.31640625 14.3828125 C1.13010715 11.98889139 1.13010715 11.98889139 0 10 C-0.06996014 8.29297265 -0.08440154 6.58331997 -0.0625 4.875 C-0.05347656 3.96492187 -0.04445313 3.05484375 -0.03515625 2.1171875 C-0.02355469 1.41851562 -0.01195312 0.71984375 0 0 Z " fill="#EF76C0" transform="translate(720,140)"/>
<path d="M0 0 C1.65 0.33 3.3 0.66 5 1 C5.66 2.98 6.32 4.96 7 7 C6.01 7.495 6.01 7.495 5 8 C5 7.34 5 6.68 5 6 C3.68 5.67 2.36 5.34 1 5 C1 4.34 1 3.68 1 3 C0.01 3.33 -0.98 3.66 -2 4 C-1.34 2.68 -0.68 1.36 0 0 Z " fill="#707070" transform="translate(580,359)"/>
<path d="M0 0 C3.875 1.75 3.875 1.75 5 4 C5.66 3.34 6.32 2.68 7 2 C7.76173392 6.3164922 8.16063604 9.74433453 7 14 C4 12 4 12 3.33984375 9.94140625 C3.20707031 9.15636719 3.07429687 8.37132812 2.9375 7.5625 C2.36575164 4.25724994 1.92994213 2.89491319 0 0 Z " fill="#949494" transform="translate(740,344)"/>
<path d="M0 0 C0.33 0 0.66 0 1 0 C1.06058594 0.62648438 1.12117187 1.25296875 1.18359375 1.8984375 C1.26738281 2.71570313 1.35117187 3.53296875 1.4375 4.375 C1.55931641 5.59316406 1.55931641 5.59316406 1.68359375 6.8359375 C1.89090114 9.04272805 1.89090114 9.04272805 3 11 C-2.36000789 13.25684543 -6.1977825 14.36263859 -12 14 C-12 13.67 -12 13.34 -12 13 C-10.741875 12.731875 -9.48375 12.46375 -8.1875 12.1875 C-5.89855286 11.59302079 -4.11237458 11.06524976 -2.0625 9.875 C-0.29712267 6.75962824 -0.29042933 3.54323784 0 0 Z " fill="#ABABAB" transform="translate(643,348)"/>
<path d="M0 0 C0.33 0 0.66 0 1 0 C1 4.62 1 9.24 1 14 C2.65 14 4.3 14 6 14 C6 14.66 6 15.32 6 16 C4.824375 15.9071875 4.824375 15.9071875 3.625 15.8125 C2.325625 15.9053125 2.325625 15.9053125 1 16 C0.34 16.99 -0.32 17.98 -1 19 C-0.67 12.73 -0.34 6.46 0 0 Z " fill="#1C1C1C" transform="translate(672,343)"/>
<path d="M0 0 C2.5 1.8125 2.5 1.8125 5 4 C5 4.99 5 5.98 5 7 C1.32579134 6.69381595 0.21864487 6.24228216 -2.3125 3.4375 C-2.869375 2.633125 -3.42625 1.82875 -4 1 C-3.01 1.33 -2.02 1.66 -1 2 C-0.67 1.34 -0.34 0.68 0 0 Z " fill="#808080" transform="translate(737,229)"/>
<path d="M0 0 C3.37462715 0.54723683 5.08235 1.0549 8 3 C8.1875 6.625 8.1875 6.625 8 10 C6.66666667 8 5.33333333 6 4 4 C1.94074861 3.27617533 1.94074861 3.27617533 0 3 C0 2.01 0 1.02 0 0 Z " fill="#424242" transform="translate(738,341)"/>
<path d="M0 0 C2.93200474 2.85276137 5.64315404 5.65079784 8 9 C7.67 9.66 7.34 10.32 7 11 C3.46399535 9.08864614 1.21027154 7.37357234 -1 4 C-0.34 3.67 0.32 3.34 1 3 C0.67 2.01 0.34 1.02 0 0 Z " fill="#868686" transform="translate(382,340)"/>
<path d="M0 0 C2.0625 0.4375 2.0625 0.4375 4 1 C3.34 3.31 2.68 5.62 2 8 C1.34 8 0.68 8 0 8 C-0.38063221 5.6739143 -0.71269945 3.33944736 -1 1 C-0.67 0.67 -0.34 0.34 0 0 Z " fill="#F373BF" transform="translate(627,178)"/>
<path d="M0 0 C0.66 0 1.32 0 2 0 C3.2890625 1.75 3.2890625 1.75 4.625 4 C5.07101563 4.7425 5.51703125 5.485 5.9765625 6.25 C6.31429687 6.8275 6.65203125 7.405 7 8 C4 8 4 8 1.8125 6 C1.214375 5.34 0.61625 4.68 0 4 C-0.99 4.66 -1.98 5.32 -3 6 C-2.67 4.68 -2.34 3.36 -2 2 C-1.34 2 -0.68 2 0 2 C0 1.34 0 0.68 0 0 Z " fill="#151515" transform="translate(211,355)"/>
<path d="M0 0 C3 1.75 3 1.75 6 4 C6 5.32 6 6.64 6 8 C4.68 7.67 3.36 7.34 2 7 C1.34 4.69 0.68 2.38 0 0 Z " fill="#5B5B5B" transform="translate(167,368)"/>
<path d="M0 0 C0.33 0.99 0.66 1.98 1 3 C-1.97 5.97 -4.94 8.94 -8 12 C-8.66 11.67 -9.32 11.34 -10 11 C-6.7 7.37 -3.4 3.74 0 0 Z " fill="#4B4B4B" transform="translate(538,206)"/>
<path d="M0 0 C0.33 0.99 0.66 1.98 1 3 C-1.64 5.64 -4.28 8.28 -7 11 C-7.66 10.67 -8.32 10.34 -9 10 C-8.34 9.01 -7.68 8.02 -7 7 C-6.34 7 -5.68 7 -5 7 C-4.731875 6.401875 -4.46375 5.80375 -4.1875 5.1875 C-3.01506533 3.02775192 -1.80630718 1.64209744 0 0 Z " fill="#585858" transform="translate(557,185)"/>
<path d="M0 0 C1.46015291 0.28241641 2.91809793 0.57626614 4.375 0.875 C5.18710937 1.03742188 5.99921875 1.19984375 6.8359375 1.3671875 C9 2 9 2 11 4 C9.906875 3.979375 8.81375 3.95875 7.6875 3.9375 C4.05615809 3.81455548 4.05615809 3.81455548 1 5 C0.34 4.34 -0.32 3.68 -1 3 C-0.67 2.01 -0.34 1.02 0 0 Z " fill="#919191" transform="translate(724,179)"/>
<path d="M0 0 C0.66 0 1.32 0 2 0 C2 0.66 2 1.32 2 2 C2.66 2 3.32 2 4 2 C4.33 3.32 4.66 4.64 5 6 C5.99 6 6.98 6 8 6 C8 6.66 8 7.32 8 8 C6.68 8 5.36 8 4 8 C4 7.34 4 6.68 4 6 C3.34 6 2.68 6 2 6 C2 5.34 2 4.68 2 4 C1.34 4 0.68 4 0 4 C0 2.68 0 1.36 0 0 Z " fill="#F369CA" transform="translate(656,154)"/>
<path d="M0 0 C1.32 0.33 2.64 0.66 4 1 C3.01 1.33 2.02 1.66 1 2 C0.67 4.31 0.34 6.62 0 9 C-0.99 9.33 -1.98 9.66 -3 10 C-2.01 6.7 -1.02 3.4 0 0 Z " fill="#3F3F3F" transform="translate(105,341)"/>
<path d="M0 0 C0.66 0 1.32 0 2 0 C4.42857143 6.28571429 4.42857143 6.28571429 3 10 C1.5 8.9375 1.5 8.9375 0 7 C-0.1875 3.3125 -0.1875 3.3125 0 0 Z " fill="#3F3F3F" transform="translate(704,220)"/>
<path d="M0 0 C1.32 0.33 2.64 0.66 4 1 C4 2.32 4 3.64 4 5 C3.34 5 2.68 5 2 5 C2 4.34 2 3.68 2 3 C1.34 3 0.68 3 0 3 C0 2.01 0 1.02 0 0 Z M4 3 C7.68754757 3.49831724 9.60490662 4.10067643 12 7 C10.68 7 9.36 7 8 7 C8 6.34 8 5.68 8 5 C6.68 4.34 5.36 3.68 4 3 Z " fill="#E568B1" transform="translate(662,153)"/>
<path d="M0 0 C1.65 0.33 3.3 0.66 5 1 C4.67 1.99 4.34 2.98 4 4 C3.01 4 2.02 4 1 4 C0.67 5.32 0.34 6.64 0 8 C-1.5625 5.625 -1.5625 5.625 -3 3 C-2.67 2.34 -2.34 1.68 -2 1 C-1.67 1.33 -1.34 1.66 -1 2 C-0.67 1.34 -0.34 0.68 0 0 Z " fill="#B0B0B0" transform="translate(577,351)"/>
<path d="M0 0 C0.33 0 0.66 0 1 0 C1.20086443 3.71599191 1.1519437 4.77208445 -1 8 C-3.625 8.1875 -3.625 8.1875 -6 8 C-6 7.34 -6 6.68 -6 6 C-5.01 6 -4.02 6 -3 6 C-2.690625 5.38125 -2.38125 4.7625 -2.0625 4.125 C-1.375 2.75 -0.6875 1.375 0 0 Z " fill="#3E3E3E" transform="translate(714,225)"/>
<path d="M0 0 C0.33 0.66 0.66 1.32 1 2 C0.0625 4.625 0.0625 4.625 -1 7 C-2.32 7 -3.64 7 -5 7 C-4.60196439 4.11424181 -4.20990931 3.17810487 -1.9375 1.25 C-1.298125 0.8375 -0.65875 0.425 0 0 Z " fill="#717171" transform="translate(570,370)"/>
<path d="M0 0 C0.33 0.99 0.66 1.98 1 3 C-1.84936103 6.00765886 -4.23511958 8.27845212 -8 10 C-7.04367001 8.70684939 -6.08486149 7.41553147 -5.125 6.125 C-4.59132813 5.40570313 -4.05765625 4.68640625 -3.5078125 3.9453125 C-2 2 -2 2 0 0 Z " fill="#4C4C4C" transform="translate(547,196)"/>
<path d="M0 0 C5.45454545 0.45454545 5.45454545 0.45454545 8 3 C3.94568308 4.15837626 1.78187881 3.83691257 -2 2 C-1.34 1.34 -0.68 0.68 0 0 Z " fill="#440D35" transform="translate(699,171)"/>
<path d="M0 0 C4.43379675 2.21689838 6.46636932 4.77728219 9 9 C7.68 9 6.36 9 5 9 C4.54625 8.030625 4.0925 7.06125 3.625 6.0625 C2.34213779 2.92920418 2.34213779 2.92920418 0 2 C0 1.34 0 0.68 0 0 Z " fill="#F396D0" transform="translate(706,121)"/>
<path d="M0 0 C1.98 0.99 3.96 1.98 6 3 C5.67 4.32 5.34 5.64 5 7 C3.0625 6.3125 3.0625 6.3125 1 5 C0.25 2.375 0.25 2.375 0 0 Z " fill="#565656" transform="translate(741,369)"/>
<path d="M0 0 C3.12270126 2.51830747 3.94523098 3.7261549 4.75 7.75 C4.8325 8.8225 4.915 9.895 5 11 C0 4.40909091 0 4.40909091 0 0 Z " fill="#1E1E1E" transform="translate(41,357)"/>
<path d="M0 0 C4 2 4 2 4.75 4.125 C4.8325 4.74375 4.915 5.3625 5 6 C4.34 6 3.68 6 3 6 C2.67 6.99 2.34 7.98 2 9 C1.34 6.03 0.68 3.06 0 0 Z " fill="#656565" transform="translate(112,353)"/>
<path d="M0 0 C0.99 0 1.98 0 3 0 C2.40138258 2.35171131 1.73075648 4.6859378 1 7 C0.01 7.495 0.01 7.495 -1 8 C-0.67 6.68 -0.34 5.36 0 4 C-0.66 4 -1.32 4 -2 4 C-1.34 2.68 -0.68 1.36 0 0 Z " fill="#7E7E7E" transform="translate(584,348)"/>
<path d="M0 0 C0.99 0 1.98 0 3 0 C4.35439668 2.70879335 4.06501451 5.00933268 4 8 C1.10067643 5.60490662 0.49831724 3.68754757 0 0 Z " fill="#4A4A4A" transform="translate(34,344)"/>
<path d="M0 0 C0.99 0 1.98 0 3 0 C2.8125 2.375 2.8125 2.375 2 5 C-0.5625 6.3125 -0.5625 6.3125 -3 7 C-2.01 4.69 -1.02 2.38 0 0 Z " fill="#535353" transform="translate(590,340)"/>
<path d="M0 0 C0.66 0.66 1.32 1.32 2 2 C-0.3125 4.5 -0.3125 4.5 -3 7 C-3.99 7 -4.98 7 -6 7 C-4.02 4.69 -2.04 2.38 0 0 Z " fill="#1E1E1E" transform="translate(746,192)"/>
<path d="M0 0 C0.99 0 1.98 0 3 0 C2.38722388 2.96175123 1.74627478 4.38058783 0 7 C-0.66 6.67 -1.32 6.34 -2 6 C-1.125 1.125 -1.125 1.125 0 0 Z " fill="#717171" transform="translate(749,188)"/>
<path d="M0 0 C3.86648272 1.04097612 7.49461443 2.03698408 11 4 C7.59068103 5.13643966 6.99664544 4.86747764 3.8125 3.5625 C3.09707031 3.27503906 2.38164063 2.98757812 1.64453125 2.69140625 C1.10183594 2.46324219 0.55914063 2.23507813 0 2 C0 1.34 0 0.68 0 0 Z " fill="#161616" transform="translate(735,184)"/>
<path d="M0 0 C0.66 0.33 1.32 0.66 2 1 C2.59355614 3.64860427 2.74209269 6.29197322 3 9 C2.34 9 1.68 9 1 9 C-0.75 6.75 -0.75 6.75 -2 4 C-1.1875 1.6875 -1.1875 1.6875 0 0 Z " fill="#3D1C37" transform="translate(685,168)"/>
<path d="M0 0 C3.36720387 1.39332574 4.9859524 2.9789286 7 6 C3 6 3 6 1.25 4.6875 C0 3 0 3 0 0 Z " fill="#551237" transform="translate(654,139)"/>
<path d="M0 0 C0.33 0 0.66 0 1 0 C1.66 2.97 2.32 5.94 3 9 C2.01 9 1.02 9 0 9 C-0.66 8.34 -1.32 7.68 -2 7 C-1.60467975 4.54901444 -0.78698574 2.36095721 0 0 Z " fill="#EF6ABD" transform="translate(627,137)"/>
<path d="M0 0 C2.86724686 0.57344937 3.8614515 0.8614515 6 3 C6.125 5.625 6.125 5.625 6 8 C5.67 7.01 5.34 6.02 5 5 C4.34 4.67 3.68 4.34 3 4 C1 3 1 3 0 0 Z " fill="#3C3C3C" transform="translate(639,343)"/>
<path d="M0 0 C0.33 1.32 0.66 2.64 1 4 C-0.9375 6.25 -0.9375 6.25 -3 8 C-3.99 7.67 -4.98 7.34 -6 7 C-4.02 4.69 -2.04 2.38 0 0 Z " fill="#6A6A6A" transform="translate(377,108)"/>
<path d="M0 0 C0.33 0 0.66 0 1 0 C1.36666667 5.5 1.36666667 5.5 -0.375 7.875 C-2 9 -2 9 -4 9 C-4 6 -4 6 -2.5625 4.5 C-2.046875 4.005 -1.53125 3.51 -1 3 C-0.67 2.01 -0.34 1.02 0 0 Z " fill="#2A2A2A" transform="translate(745,353)"/>
<path d="M0 0 C1.98 0.99 1.98 0.99 4 2 C3.01 2.33 2.02 2.66 1 3 C1 6.3 1 9.6 1 13 C0.67 13 0.34 13 0 13 C0 8.71 0 4.42 0 0 Z " fill="#090909" transform="translate(380,341)"/>
<path d="M0 0 C0.6875 1.625 0.6875 1.625 1 4 C-0.4375 7.25 -0.4375 7.25 -2 10 C-2.66 9.67 -3.32 9.34 -4 9 C-2.80100302 5.9168649 -1.52299523 2.93720508 0 0 Z " fill="#4D4D4D" transform="translate(104,189)"/>
<path d="M0 0 C3.37503669 1.1858237 5.64722731 2.27573689 8 5 C5.69 4.67 3.38 4.34 1 4 C0.67 2.68 0.34 1.36 0 0 Z " fill="#F098D1" transform="translate(696,114)"/>
<path d="M0 0 C0.99 0.33 1.98 0.66 3 1 C-0.465 3.97 -0.465 3.97 -4 7 C-3.04065919 3.16263678 -2.76390737 2.40339772 0 0 Z " fill="#373737" transform="translate(518,250)"/>
<path d="M0 0 C1.65 1.65 3.3 3.3 5 5 C4.67 5.66 4.34 6.32 4 7 C3.34 7 2.68 7 2 7 C1.67 6.01 1.34 5.02 1 4 C0.34 3.67 -0.32 3.34 -1 3 C-0.67 2.01 -0.34 1.02 0 0 Z " fill="#363636" transform="translate(723,217)"/>
<path d="M0 0 C1.98 0.99 1.98 0.99 4 2 C4 2.66 4 3.32 4 4 C3.34 4 2.68 4 2 4 C1.67 5.32 1.34 6.64 1 8 C0.67 5.36 0.34 2.72 0 0 Z " fill="#5D5D5C" transform="translate(687,178)"/>
<path d="M0 0 C1.32 0.66 2.64 1.32 4 2 C3.01 2.33 2.02 2.66 1 3 C0.67 3.99 0.34 4.98 0 6 C-0.66 6 -1.32 6 -2 6 C-1.34 4.02 -0.68 2.04 0 0 Z " fill="#525252" transform="translate(28,257)"/>
<path d="M0 0 C1.99097846 2.98646769 2.94124926 5.59687262 4 9 C3.01 9 2.02 9 1 9 C0.67 6.03 0.34 3.06 0 0 Z " fill="#EB97CF" transform="translate(678,175)"/>
<path d="" fill="#D6FFEF" transform="translate(0,0)"/>
</svg>
